<?xml version="1.0" encoding="UTF-8"?>
<svg width="44px" height="44px" viewBox="0 0 44 44" version="1.1" xmlns="http://www.w3.org/2000/svg" xmlns:xlink="http://www.w3.org/1999/xlink">
    <title>Avatar-4</title>
    <g id="Home" stroke="none" stroke-width="1" fill="none" fill-rule="evenodd">
        <g id="Rank" transform="translate(-41.000000, -528.000000)" fill-rule="nonzero">
            <g id="Rank-pane" transform="translate(0.000000, 63.000000)">
                <g id="Content" transform="translate(16.000000, 41.000000)">
                    <g id="List" transform="translate(0.000000, 333.000000)">
                        <g id="Avatar-4" transform="translate(25.000000, 91.000000)">
                            <path d="M1.10000128,22.0000256 L1.10000128,22.0000288 C1.10000128,33.5427805 10.4572739,42.9000531 22.0000256,42.9000531 C33.5427773,42.9000531 42.9000499,33.5427805 42.9000499,22.0000288 L42.9000499,22.0000288 C42.9000499,10.457277 33.5427773,1.10000444 22.0000256,1.10000444 C10.4572739,1.10000444 1.10000128,10.457277 1.10000128,22.0000288 L1.10000128,22.0000256 Z" id="Path" fill="#47A3FF"></path>
                            <path d="M36.216425,37.3197348 L36.2164252,37.3197347 C40.4838071,33.3690929 42.9067532,27.8153369 42.900064,22.0000254 C42.900064,10.4577034 33.5423478,1.1000011 22.0000258,1.1000011 C10.4577038,1.1000011 1.09998681,10.4577034 1.09998681,22.0000254 L1.09998681,21.9997992 C1.09304166,27.8189779 3.5189905,33.3761328 7.79114625,37.3272858 C7.80214626,37.1996857 7.84064631,36.9972854 7.9231464,36.5319849 C7.98144647,35.7212839 8.3521469,34.9655831 8.9527476,34.4221824 L8.95274744,34.4221826 C9.54450945,33.9270273 10.2173278,33.5377772 10.9415497,33.2715812 C11.7159507,32.9789809 12.5035516,32.7237806 13.3032525,32.5059803 L13.303253,32.5059802 C14.0714234,32.3024078 14.8011711,31.9746925 15.4636512,31.5357791 L15.4636516,31.5357789 C15.8785347,31.2789952 16.2545181,30.9641348 16.5801529,30.6007778 C16.8166531,30.3367775 17.0058533,30.0342771 17.1378535,29.7053767 C17.2643536,29.4105764 17.3270537,29.092676 17.3248537,28.7714756 C17.3248537,28.4480753 17.3094537,28.0872748 17.2808537,27.6879744 L17.2808537,27.6879751 C17.2657616,27.1812054 17.0676451,26.6970502 16.723153,26.3250736 L16.7231528,26.3250733 C16.3739118,25.9690488 16.011005,25.6266928 15.6352515,25.2987721 L15.6352517,25.2987723 C15.4280948,25.0893754 15.2630435,24.8421729 15.1490511,24.5705714 C15.017051,24.253771 14.8894508,23.9358707 14.7629507,23.6179703 C14.6419505,23.2219698 14.5275504,22.8237694 14.4197503,22.4233689 L14.4197504,22.4233689 C14.2429415,22.3660077 14.0778833,22.2773309 13.9324498,22.1615686 L13.9324497,22.1615686 C13.7597052,22.0066029 13.6060841,21.8315634 13.4748492,21.640168 L13.4748494,21.6401683 C13.2826259,21.3422127 13.1423989,21.0137777 13.0601489,20.6688671 L13.0601488,20.6688669 C12.9226757,20.3018351 12.8689333,19.9087273 12.9028486,19.5182656 C12.9270486,19.2124652 12.9897487,18.9110648 13.0887488,18.6217645 C13.192149,18.3335642 13.3472491,18.0684639 13.5463494,17.8374636 C13.5232493,16.8892625 13.5705494,15.9410614 13.6893495,14.9994603 C13.7916496,14.1304593 13.9599498,13.2691583 14.1909501,12.4254573 L14.1909503,12.4254565 C14.416824,11.5480508 14.7890803,10.7150319 15.2920516,9.96145367 L15.2920511,9.96145451 C15.6913726,9.31700415 16.1942154,8.74280348 16.7803528,8.26195253 L16.7803524,8.26195286 C17.2904264,7.84680937 17.8534251,7.50131487 18.4545543,7.23455167 L18.4545545,7.23455161 C19.0027289,6.99307942 19.5799116,6.82373336 20.1716565,6.73075102 L20.1716553,6.7307512 C20.7212606,6.64508302 21.2765894,6.60137387 21.8328291,6.6000011 L21.8328291,6.60550145 C22.5071299,6.60550145 23.1792307,6.68800155 23.8348315,6.84860173 C24.4805322,7.00260191 25.1086329,7.22150217 25.7103336,7.50200249 C26.2614343,7.75610279 26.7850349,8.06960315 27.2701354,8.43590358 C27.6661359,8.73620393 28.0236363,9.08710434 28.3283367,9.4809048 L28.3283369,9.48090513 C28.9264497,10.2713076 29.3773171,11.1629747 29.6593385,12.1132082 C29.9211388,13.0119092 30.116939,13.9282103 30.2467392,14.8566114 C30.3732393,15.8576126 30.4359394,16.8674137 30.4326394,17.8772149 C30.5954396,18.0092151 30.7274397,18.1742152 30.8187398,18.3612155 C30.9177399,18.5768157 30.99034,18.801216 31.0332401,19.0344162 C31.0948402,19.3666166 31.1047402,19.705417 31.0618401,20.0409174 L31.0618401,20.0409171 C31.0275748,20.4709273 30.9262495,20.8929282 30.7615398,21.2916185 C30.6328396,21.5622188 30.4590394,21.8086191 30.2467392,22.0198194 L30.2467393,22.0198193 C30.0620753,22.2060576 29.8364414,22.3465609 29.5878385,22.4301197 C29.4800384,22.8294202 29.3656383,23.2276207 29.2446381,23.6236211 C29.115938,23.9470215 28.9872378,24.2638219 28.8442377,24.5762222 C28.7155375,24.8468225 28.5417373,25.0932228 28.3283371,25.3044231 C27.9598366,25.6146234 27.5979362,25.9314238 27.2415358,26.2570242 C26.9203354,26.6277246 26.7245352,27.0919252 26.6838351,27.5814257 C26.6167351,27.9565262 26.592535,28.3382266 26.6112351,28.7199271 C26.6442351,29.1181275 26.7465352,29.507528 26.9126354,29.8705284 C27.1073356,30.2852289 27.379036,30.6581293 27.7134363,30.9705297 C28.1644369,31.3709301 28.6836375,31.6877305 29.2446381,31.9055308 C29.8650388,32.1695311 30.5008396,32.3928313 31.1476403,32.5765315 L31.1476399,32.5765314 C31.8271313,32.7721963 32.4960868,33.0027677 33.1518293,33.2673279 C33.77113,33.5093282 34.3541307,33.8349286 34.8832313,34.238629 C35.3958319,34.6412295 35.7709324,35.1945302 35.9568326,35.8215309 L35.9568327,35.8215312 C36.088465,36.3120587 36.1753539,36.8135132 36.216433,37.3197329 L36.216425,37.3197348 Z M22.0000256,0 C34.1506569,0 44.0000512,9.84939427 44.0000512,22.0000256 C44.0000512,34.1506569 34.1506569,44.0000512 22.0000256,44.0000512 C9.84939427,44.0000512 0,34.1506569 0,22.0000256 C0,9.84939427 9.84939427,0 22.0000256,0 Z" id="Shape" fill="#FFFFFF"></path>
                        </g>
                    </g>
                </g>
            </g>
        </g>
    </g>
</svg>