<?xml version="1.0" encoding="UTF-8"?>
<svg width="40px" height="40px" viewBox="0 0 40 40" version="1.1" xmlns="http://www.w3.org/2000/svg" xmlns:xlink="http://www.w3.org/1999/xlink">
    <title>Shape</title>
    <g id="Home" stroke="none" stroke-width="1" fill="none" fill-rule="evenodd">
        <g id="Settings" transform="translate(-123.000000, -333.000000)" fill="#FF9900" fill-rule="nonzero">
            <g transform="translate(16.000000, 75.000000)" id="My-collections">
                <g transform="translate(0.000000, 195.000000)">
                    <g id="æ”¶è—" transform="translate(107.000000, 63.000000)">
                        <path d="M30.1451204,39.3832255 C29.5825182,39.3832255 28.950119,39.2179314 28.3639191,38.9179109 L19.9931282,34.6337416 L11.5705012,38.9109559 C11.0371021,39.2015609 10.4264998,39.35423 9.80389755,39.35423 L9.8038977,39.35423 C8.9948577,39.3574565 8.20641928,39.0933167 7.55589509,38.6011129 C6.37709293,37.696146 5.77309223,36.128924 6.05189334,34.7014804 L7.7744969,25.5572402 L1.17187203,19.2603324 L1.17187215,19.2603325 C0.152038931,18.2030162 -0.239270118,16.6693938 0.145269392,15.236894 L0.158469407,15.1904381 C0.638469965,13.718379 1.82927213,12.6869359 3.27307459,12.4890396 L12.4464837,10.7822469 L16.5638713,2.22538013 C17.2252705,0.870587859 18.5704752,2.97436494e-14 19.9930745,2.97436494e-14 C21.4770762,2.97436494e-14 22.8570779,0.903332083 23.4356801,2.2499383 L27.5399036,10.7798247 L36.714719,12.4211289 L36.7147193,12.421129 C38.1706311,12.6369854 39.3673474,13.7067595 39.771922,15.1540446 L39.7719221,15.1540446 C40.2249343,16.5764758 39.8549933,18.1387214 38.8159209,19.1911932 L38.7933209,19.2143188 L32.2093289,25.5585122 L33.8733308,34.7191007 C34.1413311,36.183997 33.5719305,37.6638305 32.3865283,38.5859889 L32.3865283,38.5859889 C31.7516018,39.1082697 30.9597454,39.3898812 30.1451272,39.3832255 L30.1451204,39.3832255 Z M19.9961243,31.4065969 L28.7843376,35.9040113 C29.0423379,36.0370347 29.3397367,36.1207371 29.5433385,36.1207371 C29.8565388,36.1207371 30.1475384,36.0220951 30.3611402,35.8397507 L30.4009403,35.8061879 C30.9003393,35.4226712 31.1437419,34.8134248 31.0345426,34.2166621 L29.2659389,24.4681006 L36.2611424,17.727515 C36.6903421,17.2819905 36.8373423,16.6438858 36.6469428,16.0571518 L36.6277428,15.9955518 L36.6277428,15.9955517 C36.4735586,15.4273203 36.0032889,15.0077729 35.4321398,14.9289102 L35.3923398,14.922566 L25.7131098,13.1912151 L21.3570891,4.13722931 C21.1454888,3.63133264 20.5716897,3.26418723 19.9920875,3.26418723 C19.4226884,3.26418723 18.8780862,3.62887603 18.6020859,4.19228133 L14.274073,13.1871101 L4.54406171,14.9958208 C3.95306103,15.0717465 3.49406049,15.4732741 3.28186103,16.0997113 C3.13146085,16.6721196 3.30966106,17.361591 3.72086154,17.7917706 L10.7240728,24.4695618 L8.88607067,34.2232396 C8.77567054,34.7872581 9.03667085,35.4364147 9.51946985,35.8070376 C9.76147013,35.9932704 10.0750721,36.0960054 10.4040724,36.0960054 C10.6576727,36.0960054 10.9006746,36.0356332 11.1102725,35.9202098 L11.1404725,35.9022005 L19.9960688,31.4066248 L19.9961243,31.4065969 Z" id="Shape"></path>
                    </g>
                </g>
            </g>
        </g>
    </g>
</svg>