<?xml version="1.0" encoding="UTF-8"?>
<svg width="37px" height="41px" viewBox="0 0 37 41" version="1.1" xmlns="http://www.w3.org/2000/svg" xmlns:xlink="http://www.w3.org/1999/xlink">
    <title>Shape</title>
    <g id="Home" stroke="none" stroke-width="1" fill="none" fill-rule="evenodd">
        <g id="Settings" transform="translate(-123.000000, -187.000000)" fill="#F5C000" fill-rule="nonzero">
            <g transform="translate(16.000000, 75.000000)" id="Notification-center">
                <g transform="translate(0.000000, 57.000000)">
                    <g id="铃铛" transform="translate(107.000000, 55.000000)">
                        <path d="M36.3608814,31.2409926 L32.9394115,25.4373856 L32.9394115,17.3947811 L32.9394115,17.3947784 C32.8709018,14.6721078 31.9310387,12.0421097 30.2564489,9.88716183 L30.2564488,9.88716176 C28.4880684,7.52896905 26.0720301,5.72937483 23.2991913,4.70503348 L23.2497471,4.68864207 C23.0393461,4.6223789 22.8275425,4.56030078 22.6146869,4.50275645 L22.6146869,4.09401735 C22.6146869,1.8330484 20.7719254,0 18.4981927,0 C16.2248106,0 14.3816984,1.8330484 14.3816984,4.09401735 L14.3816984,4.46997362 C14.2000522,4.51914787 14.0191074,4.57146089 13.8395653,4.62726145 L13.8044985,4.63772406 L13.8044997,4.63772362 C10.987297,5.63924341 8.52663613,7.43929101 6.72626164,9.81566685 L6.72626143,9.81566712 C5.02207524,11.9838197 4.06400582,14.6394948 3.99350397,17.3905932 L3.99350397,25.4335464 L0.332177058,31.6455438 L0.332177046,31.6455438 C-0.110725686,32.3873294 -0.110725686,33.3105061 0.33217707,34.0522917 L0.332177022,34.0522916 C0.653024419,34.68296 1.36137511,35.0188663 2.05606201,34.8697698 L12.3292383,34.8697698 L12.3292382,34.8689134 C12.3292387,38.2550179 15.0892908,41 18.4939856,41 C19.5754201,41 20.6378264,40.7170733 21.5745621,40.1796228 L21.5745625,40.1796225 C23.4815928,39.0842793 24.6562875,37.0603886 24.6562349,34.8701992 L34.9297618,34.8701992 L34.9297618,34.8701992 C35.91933,35.012866 36.8378221,34.330695 36.9812717,33.34653 C37.0053019,33.1816664 37.0062118,33.0142835 36.9839754,32.8491727 L36.9839754,32.8491745 C36.9888832,32.2539089 36.7658444,31.6790934 36.3601366,31.2414208 M18.500604,2.20211179 L18.500604,2.20211179 C19.5323137,2.18871853 20.3951022,2.97869429 20.4668015,4.00237751 L20.4668015,4.00237751 C20.2457832,3.96145089 20.0238812,3.925405 19.8012551,3.89426654 L19.8012552,3.89426654 C19.7070898,3.88206135 19.6117299,3.88206135 19.5175646,3.89426654 L19.400792,3.87787512 L19.4007925,3.8778752 C18.7848481,3.76348188 18.1529352,3.76348188 17.5369909,3.87787504 L17.4363491,3.89217393 L17.4363492,3.89217394 C17.3387801,3.87996705 17.2400583,3.87996705 17.1424892,3.89217392 C16.9369976,3.92077171 16.7315061,3.95146202 16.5386385,3.98808113 L16.5386385,3.9880814 C16.6166232,2.97128185 17.4753523,2.18959447 18.5006272,2.20211472 M18.5006272,38.9269047 L18.5006274,38.9269047 C16.3248625,38.7389065 14.5954282,37.0306578 14.3914971,34.8681108 L22.610459,34.8681108 L22.610459,34.8681108 C22.4002575,37.0279674 20.6737666,38.7330189 18.5006274,38.9269047 M34.9378497,32.8251128 L2.06410648,32.8251128 C1.93891793,32.8251128 2.26959806,33.1215533 2.20191909,33.0294823 L2.20191908,33.0294823 C2.13917445,32.9236016 2.13917445,32.7921896 2.20191911,32.6863089 L6.00701999,26.2329741 C6.09784306,26.0770813 6.14588461,25.9002632 6.14693661,25.7199577 L6.14693661,17.402797 L6.14693638,17.4028003 C6.50136946,12.4569525 9.7998078,8.20320605 14.5194909,6.60539188 L14.5194917,6.60539163 C15.3855458,6.34803595 16.2665296,6.14328888 17.1575688,5.99228297 C17.2326118,6.00065305 17.3087068,6.00065305 17.3837498,5.99228297 C17.5499665,5.97589156 17.7063645,5.95357133 17.8560999,5.93299488 L17.8560998,5.93299489 C18.0597644,5.89699964 18.2658079,5.87590176 18.4725746,5.8698705 C18.6791181,5.87545056 18.8853111,5.89672452 19.0886986,5.93299489 C19.2391353,5.95357134 19.394832,5.97589157 19.5635034,5.99228298 C19.6318837,5.9996068 19.7009653,5.9996068 19.768995,5.99228298 L19.7689972,5.99228336 C20.7189881,6.15692727 21.6577839,6.3800942 22.5799537,6.66049507 L22.5799526,6.66049471 C27.2180659,8.30495902 30.4418904,12.5185509 30.7989144,17.4028001 L30.7989144,25.7195248 C30.7996158,25.8998304 30.8476573,26.0762996 30.9381297,26.2325412 L34.5671952,32.3852505 C34.6176914,32.4717413 34.680461,32.5505596 34.7541013,32.6185666 L34.7541013,32.6185666 C34.8189197,32.6803591 34.8545638,32.7664502 34.8522884,32.8557189 C34.8442231,33.0290494 35.1440444,32.8246799 34.9385528,32.8246799" id="Shape"></path>
                    </g>
                </g>
            </g>
        </g>
    </g>
</svg>