<?xml version="1.0" encoding="UTF-8"?>
<svg width="128px" height="128px" viewBox="0 0 128 128" version="1.1" xmlns="http://www.w3.org/2000/svg" xmlns:xlink="http://www.w3.org/1999/xlink">
    <title>Group</title>
    <g id="Home" stroke="none" stroke-width="1" fill="none" fill-rule="evenodd">
        <g id="Settings" transform="translate(-123.000000, -306.000000)" fill-rule="nonzero">
            <g id="Group" transform="translate(123.000000, 306.000000)">
                <path d="M64.0471366,0.00187317073 C28.7385925,0.00187317073 0.111386349,28.6295787 0.111386349,63.9381229 C0.111386349,85.6856887 10.9739304,104.894785 27.5667608,116.445144 C30.8057812,105.164142 39.0002356,96.6711101 50.1489944,92.8014686 C50.5640943,92.6575519 50.9816135,92.5207101 51.4013706,92.3910028 C51.5205018,92.3540396 51.6391335,92.3150784 51.7593886,92.2786149 C52.8500688,91.9521234 53.9538858,91.6712426 55.0679647,91.4367043 C55.2184396,91.4049859 55.3707877,91.376889 55.5222617,91.346794 C56.5278248,91.1451308 57.5405093,90.9807653 58.5582346,90.8540354 C58.7305628,90.8321822 58.9016422,90.8082061 59.0744698,90.7884756 C59.6593354,90.7203316 60.2454905,90.663752 60.8325918,90.6187699 L63.1485326,90.6187699 C63.3695623,90.6338799 63.6053272,90.6338799 63.8415916,90.6187699 L64.0481356,90.6187699 C47.7555059,90.6187699 34.494728,77.672928 33.9708754,61.5077962 C33.9526436,61.4963076 33.9344118,61.4869419 33.91618,61.4754534 C32.8802129,42.1067657 50.3731458,30.1998879 63.0611198,30.4392743 C63.3894174,30.4282853 63.7172155,30.4142992 64.0481356,30.4142992 C64.3624472,30.4142992 64.6730125,30.4282853 64.9842024,30.4376509 C68.6544178,30.3752131 72.7186155,31.3222688 76.6240963,33.1678037 C79.2187384,34.3638326 81.629952,35.9230527 83.785206,37.7985615 C90.1049047,43.1775732 94.6952027,51.2923569 94.150371,61.4749539 L94.1258954,61.4895643 C93.6114084,77.6634375 80.3475088,90.6182703 64.0481356,90.6182703 L67.2927754,90.6182703 C67.8790064,90.6632274 68.464288,90.7198071 69.048275,90.7879762 C69.2231007,90.8077066 69.3954289,90.8316827 69.5691308,90.8540354 C70.1688038,90.9279344 70.7666635,91.0158709 71.3622178,91.1177723 C71.7743069,91.1875778 72.1826498,91.263502 72.5884952,91.3446711 C72.7452139,91.37589 72.9023072,91.4044864 73.0574026,91.4378282 C74.1665642,91.6714865 75.2655416,91.9511156 76.3514931,92.2759925 C76.4804895,92.3150786 76.6079874,92.3566621 76.7369838,92.3967471 C77.1455467,92.5233886 77.5519886,92.6567738 77.9561431,92.7968482 C89.1012804,96.6633679 97.2988566,105.153777 100.547617,116.432032 C117.129584,104.880674 127.983886,85.6779464 127.983886,63.9381229 C127.983886,28.6295787 99.3561804,0.00187317073 64.0470118,0.00187317073 L64.0471366,0.00187317073 Z" id="Path" fill="#F08E83"></path>
                <path d="M94.1253959,61.4895643 C86.164084,66.4584849 65.2875249,59.271401 59.0843351,48.3161993 C53.2994781,58.4639562 43.4972518,67.4518693 33.9702511,61.5071718 C34.4942286,77.6723036 47.7545069,90.6182703 64.0476361,90.6182703 C80.3463847,90.6182703 93.6102845,77.6634374 94.1253959,61.4895643 L94.1253959,61.4895643 Z M76.6235968,33.1678037 C79.2033348,34.3907509 81.6110189,35.9476886 83.7847065,37.7985615 C81.6294188,35.9230975 79.2182118,34.3638817 76.6235968,33.1678037 L76.6235968,33.1678037 Z M64.9837029,30.4376509 C64.6720136,30.4282853 64.3618229,30.4142992 64.0476361,30.4142992 C63.716716,30.4142992 63.3889179,30.4282853 63.0606204,30.4392743 C63.37693,30.445518 63.6932396,30.4522613 64.0039298,30.4736151 C64.3254841,30.4511376 64.6542813,30.4428957 64.9837029,30.4376509 L64.9837029,30.4376509 Z" id="Shape" fill="#FCE9EA"></path>
                <path d="M55.0675901,91.4362048 C55.2178152,91.4044864 55.3702882,91.3763895 55.5217623,91.3462945 C55.3702883,91.3763895 55.2178154,91.4049859 55.0674652,91.4362048 L55.0675901,91.4362048 Z M69.047276,90.7879762 C69.2221017,90.8077066 69.3944299,90.8316827 69.5681317,90.8540354 C69.3943051,90.8315578 69.2222267,90.8077066 69.0474009,90.7878514 L69.047276,90.7879762 Z M51.4008711,92.3905033 C51.5200022,92.3535401 51.638634,92.314454 51.7587643,92.2781154 C51.6386341,92.3144542 51.5205019,92.3535402 51.4008711,92.3905033 Z M72.5879957,91.3446711 C72.74409,91.37589 72.9018077,91.4049859 73.0567782,91.4378282 C72.9018077,91.4044864 72.7445895,91.3753905 72.5879957,91.3446711 Z M76.3509936,92.2759925 C76.47999,92.3150786 76.6074879,92.3566621 76.7364843,92.3967471 C76.6079874,92.3566621 76.4804895,92.3150784 76.3509936,92.2759925 Z M77.9556436,92.7968482 L78.2225026,92.8915038 C77.8824898,93.8562782 77.4441604,94.7835278 76.9144318,95.6586198 C79.0555468,98.9558322 78.5180828,113.333122 75.3004161,111.060887 L69.6665337,107.108079 L64.0471366,103.15527 L64.4155193,102.895529 C64.2926418,102.898776 64.1703887,102.905019 64.0471366,102.905019 C63.9185148,102.905019 63.7916414,102.898276 63.663644,102.895029 L64.0320267,103.15527 L58.4126298,107.108079 L52.7786224,111.060887 C49.5428487,113.337367 49.0068831,98.9068809 51.1698514,95.6425107 C50.6457124,94.7741906 50.2114009,93.8547305 49.8736439,92.8983719 C49.9653025,92.8655296 50.0563367,92.8333118 50.1478705,92.8015934 C38.9991118,96.6716096 30.8046575,105.164766 27.5657619,116.445144 C37.9121955,123.647962 50.4850343,127.874373 64.0465123,127.874373 C77.616357,127.874373 90.1960639,123.642717 100.546618,116.432032 C97.2983571,105.153777 89.1007809,96.6627435 77.9556436,92.7968482 Z M58.5577351,90.853411 C58.7300633,90.8315578 58.9011427,90.8077066 59.0739703,90.7878514 C58.9006431,90.8077066 58.7299383,90.8315578 58.5577351,90.8535358 L58.5577351,90.853411 Z" id="Shape" fill="#CFE07D"></path>
                <path d="M51.1702261,95.6425107 C51.6000475,94.9936578 52.136013,94.7833674 52.7791219,95.2355415 L58.4131293,99.1883503 L63.663644,102.895654 C63.7916414,102.898776 63.9185148,102.905519 64.0470118,102.905519 C64.1703889,102.905519 64.2921425,102.899275 64.4153945,102.896153 L69.6670332,99.1883503 L75.3009156,95.2355415 C75.9471462,94.7792465 76.4841109,94.9967796 76.9149313,95.6586198 C77.4446598,94.7835278 77.8829892,93.8562781 78.223002,92.8915038 L77.9561431,92.7968482 C77.5519355,92.6569313 77.1454961,92.5235468 76.7369838,92.3967471 C76.6079874,92.3566621 76.4804895,92.3150784 76.3514931,92.2759925 C75.2655005,91.9511122 74.1664813,91.6714831 73.0572778,91.4378282 C72.9018078,91.4049859 72.74409,91.37589 72.5884952,91.3446711 C71.9938291,91.2259313 71.396753,91.1195976 70.7976558,91.0257392 C70.3889715,90.9627559 69.9794228,90.9055156 69.5691308,90.8540354 C69.395429,90.8315578 69.2232257,90.8077066 69.0483999,90.7878514 C68.4643705,90.7197223 67.8790472,90.6631842 67.2927754,90.6182703 L63.8415916,90.6182703 C63.6053272,90.6333803 63.3695623,90.6333803 63.1485326,90.6182703 L60.8325918,90.6182703 C60.2454488,90.6632509 59.6592521,90.7198306 59.074345,90.7879762 C58.9011426,90.8077066 58.7304378,90.8316827 58.5582346,90.8535358 C57.9586266,90.9286395 57.3606725,91.016405 56.7647728,91.1167734 C56.347439,91.1875778 55.933227,91.2640016 55.5222617,91.3461696 C55.3707877,91.3763895 55.2188143,91.4044864 55.0679647,91.4362048 C53.9538438,91.6707398 52.849985,91.9516205 51.7592637,92.2781154 C51.6391335,92.3139547 51.5210013,92.3535402 51.4013706,92.3905033 C50.8890823,92.5491103 50.3801073,92.7182274 49.8747678,92.8977475 C50.2120855,93.8543791 50.6461977,94.7740693 51.170351,95.6425107 L51.1702261,95.6425107 Z" id="Path" fill="#FEFEFE"></path>
                <path d="M75.3009156,95.235042 L69.6670332,99.1878507 L64.4153945,102.895654 L64.0470118,103.15527 L69.6664088,107.108079 L75.3004161,111.060887 C78.5180828,113.333122 79.0555468,98.9558321 76.9144318,95.6586198 C76.4841109,94.9962802 75.9471462,94.778747 75.3010405,95.235042 L75.3009156,95.235042 Z M52.7791219,95.235042 C52.1360132,94.7829927 51.6000476,94.9930334 51.170351,95.6418863 C49.0073826,98.9058818 49.5432233,113.336743 52.7791219,111.060388 L58.4131293,107.107579 L64.0325262,103.15477 L63.6641435,102.89453 L58.4136288,99.1873512 L52.7792468,95.235042 L52.7791219,95.235042 Z" id="Shape" fill="#7EA701"></path>
                <path d="M59.0843351,48.3161993 C65.2874,59.2715259 86.164084,66.4584849 94.1253959,61.4895643 L94.1498715,61.4749539 C94.6945785,51.2918573 90.1049047,43.1769486 83.7847065,37.7985615 C81.6111895,35.9474593 79.2034739,34.3905013 76.6235968,33.1678037 C72.7181158,31.322144 68.6540432,30.3752132 64.983578,30.4376509 C64.6542813,30.4433951 64.3254841,30.4511374 64.0033054,30.4729907 C65.0450167,34.1610633 62.9705852,41.4994963 59.0843351,48.3161993 L59.0843351,48.3161993 Z" id="Path" fill="#F7B970"></path>
                <path d="M59.0843351,48.3161993 C62.9704603,41.499621 65.0450167,34.1610633 64.0033054,30.4731156 C63.6891953,30.4539712 63.3746656,30.4424793 63.059996,30.4386499 C50.3726465,30.1993884 32.8797134,42.1062662 33.915181,61.4749539 C33.9334128,61.4864424 33.9515197,61.4958081 33.9697515,61.5071718 C43.4972517,67.4517445 53.2994781,58.4639562 59.0843351,48.3161993 L59.0843351,48.3161993 Z" id="Path" fill="#FBCE77"></path>
            </g>
        </g>
    </g>
</svg>