<?xml version="1.0" encoding="UTF-8"?>
<svg width="30px" height="38px" viewBox="0 0 30 38" version="1.1" xmlns="http://www.w3.org/2000/svg" xmlns:xlink="http://www.w3.org/1999/xlink">
    <title>Medal-gold</title>
    <g id="Home" stroke="none" stroke-width="1" fill="none" fill-rule="evenodd">
        <g id="iPhone-11-Pro" transform="translate(-173.000000, -252.000000)" fill-rule="nonzero">
            <g id="List-1" transform="translate(163.000000, 209.000000)">
                <g id="Medal-gold" transform="translate(10.000000, 43.000000)">
                    <path d="M15.0701937,8.91383027 C7.27960646,8.91383027 0.963278798,15.3303182 0.963278798,23.2457298 C0.963278798,31.1610124 7.27964943,37.5775003 15.0701937,37.5775003 C22.8630152,37.5775003 29.1784835,31.1610124 29.1784835,23.2457298 C29.1784835,15.3303182 22.8631871,8.91383027 15.0701937,8.91383027 Z M22.3253037,21.9669353 L19.5438473,24.7215791 L20.2000238,28.6110719 C20.4208405,29.9168078 19.6863318,30.4878632 18.5095453,29.8594015 L15.0704515,28.0227002 L11.6330764,29.8594015 C10.4791922,30.475789 9.71744133,29.9430618 9.94221112,28.6110719 L10.5988174,24.7215791 L7.8174899,21.9669353 C6.88347709,21.0424186 7.14717662,20.1426949 8.46369768,19.9480892 L12.3074287,19.3805143 L14.0263096,15.8422485 C14.6034236,14.6538174 15.52837,14.6302275 16.1166128,15.8422485 L17.8360523,19.3805143 L21.6796545,19.9480892 C22.9696638,20.138484 23.2776212,21.0242858 22.3253037,21.9669353 L22.3253037,21.9669353 Z M28.2589082,0.651531593 L19.5360699,0.651531593 C19.06496,0.651531593 18.6880377,0.985871826 18.5771352,1.42913797 L15.8884485,6.81549189 C15.8884485,6.81549189 21.6457521,7.16796496 25.0470764,10.4944376 L29.0631123,2.26178737 C29.1821359,2.09296296 29.2671711,1.89822836 29.2671711,1.67517732 C29.2671711,1.10979384 28.8153971,0.651531593 28.2589082,0.651531593 Z M14.1115168,6.8157497 L11.422873,1.42935281 C11.3119705,0.985871826 10.9341029,0.651703468 10.4638953,0.651703468 L1.74062736,0.651703468 C1.18409546,0.651703468 0.732880092,1.10975088 0.732880092,1.67539216 C0.732880092,1.8984432 0.817485659,2.09343561 0.936981892,2.26200222 L4.95297485,10.4947384 C8.35412724,7.16800793 14.1115168,6.8157497 14.1115168,6.8157497 Z" id="Shape" fill="#FF8400"></path>
                    <path d="M0.963278798,23.2457298 C0.963278798,30.9083129 6.88278959,37.1660741 14.3286811,37.5578636 L16.0478628,28.5446851 L15.0704515,28.0227002 L11.6330764,29.8594015 C10.4791922,30.475789 9.71744133,29.9430618 9.94221112,28.6110719 L10.5988174,24.7215791 L7.8174899,21.9669353 C6.88347709,21.0424186 7.14717662,20.1426949 8.46369768,19.9480892 L12.3074287,19.3805143 L14.0263096,15.8422485 C14.6034236,14.6538174 15.52837,14.6302275 16.1166128,15.8422485 L17.8073062,19.3212603 L19.6453826,9.68464757 C18.2106543,9.18530715 16.6717697,8.91383027 15.0701937,8.91383027 C7.27960646,8.91383027 0.963278798,15.3303182 0.963278798,23.2457298 Z M4.95297485,10.4947384 C8.35412724,7.16800793 14.1115168,6.8157497 14.1115168,6.8157497 L11.422873,1.42935281 C11.3119705,0.985871826 10.9341029,0.651703468 10.4638953,0.651703468 L1.74062736,0.651703468 C1.18409546,0.651703468 0.732880092,1.10975088 0.732880092,1.67539216 C0.732880092,1.8984432 0.817485659,2.09343561 0.936981892,2.26200222 L4.95297485,10.4947384 Z M18.5771352,1.42913797 L15.8884485,6.81549189 C15.8884485,6.81549189 17.7784741,6.93150765 20.0323596,7.65591865 L21.3684314,0.651531593 L19.5360699,0.651531593 C19.065003,0.651531593 18.6880377,0.985871826 18.5771352,1.42913797 Z" id="Shape" fill="#F5B417"></path>
                </g>
            </g>
        </g>
    </g>
</svg>