<?xml version="1.0" encoding="UTF-8"?>
<svg width="44px" height="44px" viewBox="0 0 44 44" version="1.1" xmlns="http://www.w3.org/2000/svg" xmlns:xlink="http://www.w3.org/1999/xlink">
    <title>Avatar-7</title>
    <g id="Home" stroke="none" stroke-width="1" fill="none" fill-rule="evenodd">
        <g id="Rank" transform="translate(-41.000000, -720.000000)" fill-rule="nonzero">
            <g id="Rank-pane" transform="translate(0.000000, 63.000000)">
                <g id="Content" transform="translate(16.000000, 41.000000)">
                    <g id="List" transform="translate(0.000000, 333.000000)">
                        <g id="Avatar-7" transform="translate(25.000000, 283.000000)">
                            <path d="M0,22.0000256 L0,22.0000289 C0,34.1503165 9.84973802,44.0000545 22.0000256,44.0000545 C34.1503132,44.0000545 44.0000512,34.1503165 44.0000512,22.0000289 L44.0000512,22.0000289 C44.0000512,9.84974135 34.1503132,3.32190933e-06 22.0000256,3.32190933e-06 C9.84973802,3.32190933e-06 0,9.84974135 0,22.0000289 L0,22.0000256 Z" id="Path" fill="#E9E9E9"></path>
                            <path d="M8.68408042,21.0830284 C9.01023939,21.4650606 9.47258798,22.244488 9.9998925,23.1321718 C11.2626252,25.2581435 10.399385,25.5975712 12.5658646,27.4616222 C14.7323429,29.3256861 19.1316691,28.9995271 19.1316691,28.9995271 L20.8930677,30.997688 L23.2104051,30.997688 L24.5527547,28.9995271 C24.5527547,28.9995271 28.7872355,29.4674659 31.295247,27.4616222 C33.8032499,25.4557784 32.4378518,25.503968 34.2935368,22.6690971 C35.1358241,21.3826198 35.3928377,21.5509372 35.5981727,20.1589973 C35.6386807,19.8859177 36.0849662,19.1700446 36.0423626,18.7963922 C35.3146173,12.4198652 26.6089064,6.28710028 26.6089064,6.28710028 L10.3994422,11.6166924 L8.15613996,17.0063549 C8.15613996,17.0063549 7.57715686,19.7867371 8.68414057,21.0829941 L8.68408042,21.0830284 Z" id="Path" fill="#FFE2C2"></path>
                            <path d="M13.818809,32.3966275 C12.1782345,35.5234241 13.2370287,40.2153593 13.2370287,40.2153593 C13.2370287,40.2153593 13.6462992,41.8489471 18.0316163,42.7212653 C18.669269,42.8483765 22.5210395,43.159169 25.266488,42.7212653 C29.9465638,41.9739649 30.7301858,40.9137699 30.7301858,40.9137699 C30.7301858,40.9137699 31.5277726,34.7579736 29.9996431,31.9775485 C28.4715136,29.1971664 24.2950193,29.2055452 24.2950193,29.2055452 L21.9148271,30.4990093 L19.3341897,29.2963427 C19.3348881,29.2963427 15.4586918,29.269803 13.8188005,32.3966018 L13.818809,32.3966275 Z" id="Path" fill="#FB4747"></path>
                            <path d="M22.2095415,9.68280424 C21.863827,9.68280424 21.4231265,11.6467448 19.8028074,13.3843945 C18.1824883,15.1220485 18.1824883,15.1220485 16.8603899,15.5934763 C15.5382915,16.0649042 13.01213,15.3141108 10.5977303,16.4008429 C8.18331343,17.4875754 8.00591674,20.1820543 8.00591674,20.1820543 C8.00591674,20.1820543 7.19785408,13.2391127 8.8523935,9.68348744 C10.5069372,6.12786221 13.9536065,4.20092637 18.21392,3.23086274 C22.4742422,2.26076474 27.7933413,2.12317864 33.1522812,7.36407458 C38.511221,12.6049791 35.8593327,19.678503 35.8593327,19.678503 L33.1522812,15.8882122 C33.1522812,15.8882122 28.8123464,16.9099931 25.7218584,15.1227531 C23.6643318,13.9319588 22.5552512,9.68281713 22.2095372,9.68281713 L22.2095415,9.68280424 Z" id="Path" fill="#5C4948"></path>
                        </g>
                    </g>
                </g>
            </g>
        </g>
    </g>
</svg>