<?xml version="1.0" encoding="UTF-8"?>
<svg width="16px" height="16px" viewBox="0 0 16 16" version="1.1" xmlns="http://www.w3.org/2000/svg" xmlns:xlink="http://www.w3.org/1999/xlink">
    <title>头像 男孩</title>
    <g id="Home" stroke="none" stroke-width="1" fill="none" fill-rule="evenodd">
        <g id="Rank" transform="translate(-36.000000, -281.000000)" fill-rule="nonzero">
            <g id="头像-男孩" transform="translate(36.000000, 281.000000)">
                <rect id="Rectangle" fill="#000000" opacity="0" x="0" y="0" width="16" height="16"></rect>
                <path d="M8.00003253,0 C3.58409423,0 0.00370923438,3.580385 0.00370923438,7.99632331 C0.00370923438,10.7162316 1.36226427,13.1187076 3.43748195,14.5632257 C3.84191839,13.1548889 4.86384434,12.0939835 6.25448097,11.6095708 C6.31239705,11.5893327 6.37096387,11.5702009 6.43018144,11.5520452 C6.43955212,11.5491819 6.44879267,11.5460583 6.45822844,11.5432601 C6.59755742,11.5014587 6.73861636,11.4656566 6.88101581,11.4359527 C6.89559244,11.4328942 6.91029922,11.4301611 6.92487584,11.4272328 C7.00125011,11.4119276 7.07794729,11.3982805 7.15491331,11.3863011 C7.20911197,11.3779162 7.26343339,11.3703451 7.31785922,11.3635901 C7.33744656,11.3611173 7.35690377,11.3584493 7.37655619,11.3562367 C7.45020109,11.3476857 7.52401014,11.3406128 7.59793877,11.3350225 L8.40583553,11.3350225 C8.48015031,11.3405539 8.55355406,11.3478422 8.6265023,11.3561066 C8.64713083,11.3585144 8.66756414,11.3613125 8.68806253,11.3639155 C8.76325035,11.3732653 8.83823256,11.3842002 8.91295912,11.3967129 C8.96632,11.4056932 9.01929044,11.4154543 9.07180536,11.4259313 C9.08976584,11.4295104 9.10798664,11.4328292 9.12581698,11.4366035 C9.26657258,11.4662122 9.40433475,11.5011571 9.53903845,11.5414381 C9.55569745,11.5463837 9.57209617,11.5517849 9.58869009,11.5569257 C9.63905756,11.5725435 9.68909966,11.5888772 9.73855608,11.6059917 C11.1336177,12.0885172 12.1589276,13.1503337 12.565121,14.5614037 C14.6389071,13.1166252 15.9964209,10.7150602 15.9964209,7.99619316 C15.9964209,3.58031992 12.4159708,0 8.00003253,0 Z M8.00003253,11.3331354 C5.96294834,11.3331354 4.30485656,9.71499922 4.23841577,7.69411852 C4.23613817,7.69268688 4.23386056,7.69151555 4.23158297,7.69008391 C4.15355895,6.23144469 4.91616403,5.11093125 5.88154047,4.45615419 C5.88713686,4.45231481 5.89253802,4.44834528 5.89813441,4.44457098 C5.93496642,4.41984277 5.97231905,4.39641605 6.00967166,4.37305438 C6.02431336,4.36387891 6.0386297,4.354313 6.05340155,4.34539783 C6.6477897,3.98436591 7.30178587,3.79571567 7.87710728,3.80664814 C7.91803898,3.80528158 7.95884053,3.80352458 8.00009761,3.80352458 C8.03927231,3.80352458 8.07786133,3.80528158 8.11677573,3.80645292 C8.55797912,3.79883923 9.04499478,3.90855441 9.51619739,4.12225823 C9.86714272,4.27703884 10.1923829,4.48452458 10.4806628,4.73753523 C11.2654582,5.41079338 11.8336214,6.42263283 11.7648379,7.69008391 L11.7617144,7.69190598 C11.6963148,9.7137628 10.0378325,11.3331354 8.00003253,11.3331354 L8.00003253,11.3331354 Z" id="Shape" fill="#A0D9F6"></path>
                <path d="M5.88147539,4.52961634 C5.91480872,4.50546074 5.94774988,4.47922284 5.98147539,4.45548384 C5.94774988,4.47963944 5.9152009,4.50546084 5.88147539,4.52961634 Z M8.11664558,3.84459932 C8.07773117,3.83710272 8.03914216,3.82585792 7.99996747,3.82585792 C7.95871039,3.82585792 7.91790884,3.83710272 7.87697714,3.84584872 C7.91641214,3.85084642 7.95578205,3.85626062 7.99443616,3.87291962 C8.0351293,3.85695109 8.07587855,3.84750803 8.11664558,3.84459932 L8.11664558,3.84459932 Z M7.37935438,6.04259923 C6.65579384,7.31193747 5.4299252,8.43642044 4.23835069,7.69411852 C4.3047915,9.71499922 5.96288327,11.3331354 7.99996747,11.3331354 C10.0377675,11.3331354 11.6963148,9.7137628 11.7616493,7.69190598 C10.7659483,8.31160803 8.15516955,7.41260733 7.37935438,6.04259923 Z M6.00960658,4.44539783 C6.04308871,4.41245666 6.0759756,4.37763313 6.10960658,4.34539783 C6.07567803,4.37786844 6.04308874,4.41245666 6.00960658,4.44539783 Z M9.51606723,4.12225823 C9.86493841,4.28088609 10.1896382,4.48802707 10.4805326,4.73753523 C10.1922356,4.48454744 9.86699907,4.27706404 9.51606723,4.12225823 L9.51606723,4.12225823 Z" id="Shape" fill="#FCE9EA"></path>
                <path d="M9.53903845,11.541874 C9.57259021,11.5735261 9.60561776,11.6080936 9.63903845,11.640995 C9.60561773,11.6080935 9.57259021,11.573526 9.53903845,11.541874 Z M6.88095073,11.501684 C6.91418514,11.4821097 6.9477163,11.4646177 6.98095073,11.4458764 C6.94756795,11.4646178 6.9140368,11.4821097 6.88095073,11.501684 Z M6.43011636,11.6179522 C6.46352702,11.5996273 6.49647367,11.5796365 6.53011636,11.5617281 C6.49647367,11.5796365 6.46352702,11.5996273 6.43011636,11.6179522 Z M9.73849102,11.6060568 C9.74994408,11.6100263 9.761267,11.6140609 9.77258992,11.6180955 C9.73008937,11.7385437 9.67533517,11.8543104 9.60918848,11.9635747 C9.87703408,12.3760153 9.80981239,14.174342 9.40732817,13.8916595 L8.70270423,13.3954684 L7.99990239,12.9010993 L8.04610511,12.8686273 C8.03074759,12.8690178 8.01539006,12.8697986 7.99990239,12.8697986 C7.98376398,12.8697986 7.96782078,12.8689527 7.95181252,12.8685622 L7.99808031,12.9010993 L7.29527845,13.3954684 L6.59065453,13.8916595 C6.1859578,14.1748626 6.11893133,12.3697031 6.38944495,11.9614272 C6.32401149,11.8530784 6.26978505,11.7383459 6.22760531,11.6190066 C6.23652048,11.6158179 6.24537058,11.6126293 6.25435083,11.6095708 C4.8637142,12.0939184 3.84178825,13.1548889 3.4373518,14.5632257 C4.73141825,15.4640485 6.30387231,15.9926466 7.99990239,15.9926466 C9.69703872,15.9926466 11.2704689,15.4633327 12.5649258,14.5615338 C12.1589276,13.1504639 11.1336178,12.0885823 9.73849102,11.6060568 L9.73849102,11.6060568 Z M9.07180536,11.4393689 C9.10505836,11.462275 9.13879331,11.4835153 9.17180536,11.5076709 C9.13879331,11.4835153 9.10517885,11.4618586 9.07180536,11.4393689 Z M7.31779414,11.4256969 C7.35116442,11.4102873 7.38431299,11.3927954 7.41779414,11.3786352 C7.38431299,11.3927954 7.35116442,11.4098708 7.31779414,11.4256969 Z M8.62643722,11.3772101 C8.65994672,11.3922032 8.6931391,11.4105281 8.72643722,11.4271871 C8.69313912,11.4109446 8.66005246,11.3930361 8.62643722,11.3772101 Z" id="Shape" fill="#CFE07D"></path>
                <path d="M6.38951003,11.9613622 C6.44326136,11.8802797 6.51028783,11.8539897 6.59071959,11.9105392 L7.29534353,12.4067303 L7.95187759,12.8685622 C7.96795094,12.8689527 7.98382905,12.8697986 7.99996747,12.8697986 C8.01545514,12.8697986 8.03081266,12.8690177 8.04617017,12.8686273 L8.70276931,12.4067303 L9.40739325,11.9105392 C9.48821547,11.8534691 9.55543716,11.8806701 9.60925356,11.9635096 C9.67541239,11.8542518 9.73016719,11.7384839 9.77265498,11.6180305 L9.73855608,11.6059917 C9.68887266,11.5888173 9.63891059,11.5724597 9.58869009,11.5569257 C9.57209616,11.5517849 9.55569745,11.5463837 9.53903845,11.5414381 C9.40281473,11.5007657 9.26495453,11.4657905 9.12581698,11.4366035 C9.10798664,11.4328291 9.08976586,11.4295104 9.07180536,11.4259313 C8.9447113,11.4004696 8.81670708,11.3797831 8.68806253,11.3639155 C8.66756414,11.3613125 8.64713083,11.3584493 8.6265023,11.3561066 C8.55308912,11.3476603 8.47951985,11.340631 8.40583553,11.3350225 L7.59793877,11.3350225 C7.52401014,11.3406128 7.45020109,11.3476857 7.37655619,11.3562367 C7.35690377,11.3584493 7.33744656,11.3611824 7.31785922,11.3635901 C7.18611079,11.3798531 7.05502304,11.4010824 6.92487584,11.4272328 C6.91023414,11.4301611 6.89552736,11.4328942 6.88101581,11.4359527 C6.73863057,11.4657181 6.59757425,11.5015195 6.45822844,11.5432601 C6.44879267,11.5460583 6.43955212,11.5491819 6.43018144,11.5520452 C6.37096387,11.5701358 6.31239705,11.5893327 6.25448097,11.6095708 C6.2455658,11.6126293 6.23665062,11.6158179 6.22773545,11.6190066 C6.26990602,11.7383179 6.32411017,11.8530275 6.38951003,11.9613622 L6.38951003,11.9613622 Z" id="Path" fill="#FEFEFE"></path>
                <path d="M9.40739325,11.9105392 L8.70276931,12.4067303 L8.04617017,12.8686273 L7.99996747,12.9010993 L8.70276931,13.3954684 L9.40739325,13.8916595 C9.80987745,14.174342 9.87709916,12.3760153 9.60925356,11.9635747 C9.55550223,11.8806701 9.48828055,11.8534691 9.40739325,11.9105392 Z M6.59071959,11.9105392 C6.51028783,11.8539897 6.44326136,11.8802797 6.38951003,11.9613622 C6.11899639,12.369638 6.18602286,14.1747976 6.59071959,13.8915944 L7.29534353,13.3954033 L7.99814539,12.9010343 L7.95187759,12.8684972 L7.29534353,12.4066652 L6.59071959,11.9105392 L6.59071959,11.9105392 Z" id="Shape" fill="#7EA701"></path>
                <path d="M7.37935438,6.04259923 C8.15516953,7.41260733 10.7659483,8.31160803 11.7616493,7.69190598 L11.7647729,7.69008391 C11.8335564,6.42263283 11.265328,5.41079338 10.4805977,4.73753523 C10.1896762,4.48806351 9.86498184,4.28092596 9.51613231,4.12225823 C9.0449297,3.90855441 8.55791405,3.79883923 8.11671066,3.80645292 C8.07564881,3.80716873 8.03471711,3.80814486 7.99450122,3.81087797 C8.12477986,4.27212422 7.86532884,5.18999645 7.37935438,6.04259923 L7.37935438,6.04259923 Z" id="Path" fill="#F7B970"></path>
                <path d="M7.37935438,6.04259923 C7.86532884,5.18993139 8.12484494,4.27212423 7.99450122,3.81087797 C7.95539008,3.80847932 7.91622459,3.80706893 7.87704222,3.80664814 C7.30172081,3.79571567 6.64772464,3.98436591 6.05333648,4.34539783 C6.0386297,4.354313 6.0242483,4.36394398 6.00960658,4.37305437 C5.97225397,4.39641603 5.93490134,4.41984275 5.89806933,4.44457098 C5.89247294,4.4483453 5.88707178,4.45237989 5.88147539,4.45615419 C4.91609895,5.11093125 4.15349387,6.23144469 4.23151789,7.69008391 C4.23379548,7.69151555 4.23607309,7.69268687 4.23835069,7.69411852 C5.4299252,8.43642044 6.65579384,7.31193747 7.37935438,6.04259923 Z" id="Path" fill="#FBCE77"></path>
            </g>
        </g>
    </g>
</svg>