<?xml version="1.0" encoding="UTF-8"?>
<svg width="30px" height="38px" viewBox="0 0 30 38" version="1.1" xmlns="http://www.w3.org/2000/svg" xmlns:xlink="http://www.w3.org/1999/xlink">
    <title>Medal-copper</title>
    <g id="Home" stroke="none" stroke-width="1" fill="none" fill-rule="evenodd">
        <g id="iPhone-11-Pro" transform="translate(-260.000000, -273.000000)" fill-rule="nonzero">
            <g id="List-3" transform="translate(250.000000, 228.000000)">
                <g id="Medal-copper" transform="translate(10.000000, 45.000000)">
                    <path d="M0.423145088,22.9010767 C0.423145088,30.6724569 6.82592598,36.9724791 14.7228312,36.9724791 C22.6217692,36.9724791 29.0235089,30.672697 29.0235089,22.9010767 C29.0235089,15.1292164 22.6217692,8.82924211 14.7228312,8.82924211 C6.82592598,8.82924211 0.423145088,15.1292164 0.423145088,22.9010767 Z M22.0772884,21.6456346 L19.25756,24.3498633 L19.92237,28.1691123 C20.1470142,29.4511597 19.4022327,30.0115032 18.2094023,29.3945875 L14.7238228,27.5912881 L11.2395324,29.3945875 C10.069806,29.9992091 9.29785493,29.4767085 9.52557305,28.1691123 L10.1911763,24.3498153 L7.37169584,21.6455865 C6.42482875,20.738318 6.69240869,19.8543411 8.02688741,19.6633018 L11.9231329,19.1058878 L13.6655508,15.631835 C14.2504388,14.464853 15.1876379,14.4417535 15.7841771,15.631835 L17.5273387,19.1058878 L21.4230884,19.6633018 C22.7299018,19.8499229 23.0423511,20.7201169 22.0772884,21.6456346 L22.0772884,21.6456346 Z M28.9065015,2.29784044 C29.0275744,2.1323499 29.1131484,1.94107049 29.1131484,1.72203324 C29.1131484,1.16702042 28.6551836,0.717084005 28.0916644,0.717084005 L19.249429,0.717084005 C18.7719795,0.717084005 18.3896233,1.04532772 18.2774252,1.48028067 L15.5523935,6.76896651 C15.5523935,6.76896651 21.3880853,7.11521921 24.8360837,10.3809921 L28.9065015,2.29784044 L28.9065015,2.29784044 Z M13.7511248,6.76920663 L11.0255478,1.48052079 C10.9131017,1.0450876 10.5300514,0.717084005 10.0535935,0.717084005 L1.21160604,0.717084005 C0.647293486,0.717084005 0.190121981,1.16706844 0.190121981,1.72222534 C0.190121981,1.94131061 0.275646419,2.13263804 0.397016753,2.29808056 L4.46768255,10.3814723 C7.91518506,7.11493106 13.7511248,6.76920663 13.7511248,6.76920663 L13.7511248,6.76920663 Z" id="Shape" fill="#DBAD9C"></path>
                    <path d="M0.423392806,22.9010767 C0.423392806,30.4248454 6.42383717,36.5685016 13.9712077,36.9535097 L15.7141214,28.1032234 L14.7238228,27.5912881 L11.2395324,29.3945875 C10.069806,29.9994972 9.29785493,29.4767085 9.52557305,28.1691123 L10.1911763,24.3498153 L7.37169584,21.6455865 C6.42482875,20.738318 6.69240869,19.8543411 8.02688741,19.6633018 L11.9231329,19.1058878 L13.6655508,15.631835 C14.2504388,14.464853 15.1876379,14.4417535 15.7841771,15.631835 L17.4981364,19.0478749 L19.3618751,9.58605159 L19.3618751,9.58605153 C17.8705914,9.08371137 16.3027128,8.82785896 14.7238226,8.82918883 C6.8259258,8.82918883 0.423392806,15.1292163 0.423392806,22.9010767 L0.423392806,22.9010767 Z M4.46768255,10.3814723 C7.91518506,7.11493106 13.7511248,6.76920663 13.7511248,6.76920663 L11.0255478,1.48052079 C10.9131017,1.0450876 10.5300514,0.717084005 10.0535935,0.717084005 L1.21160604,0.717084005 C0.647293486,0.717084005 0.190121981,1.16706844 0.190121981,1.72222534 C0.190121981,1.94131061 0.275646419,2.13263804 0.397016753,2.29808056 L4.46768255,10.3814723 L4.46768255,10.3814723 Z M18.2774252,1.48004055 L15.5523935,6.76872639 C15.5523935,6.76872639 17.4686863,6.88254316 19.7533043,7.59368185 L21.1073173,0.716555742 L19.2501727,0.716555742 C18.77193,0.716843886 18.3898712,1.04503958 18.2774252,1.48004055 Z" id="Shape" fill="#E8C9BC"></path>
                </g>
            </g>
        </g>
    </g>
</svg>