<?xml version="1.0" encoding="UTF-8"?>
<svg width="50px" height="50px" viewBox="0 0 50 50" version="1.1" xmlns="http://www.w3.org/2000/svg" xmlns:xlink="http://www.w3.org/1999/xlink">
    <title>Avatar-copper</title>
    <g id="Home" stroke="none" stroke-width="1" fill="none" fill-rule="evenodd">
        <g id="Rank" transform="translate(-250.000000, -228.000000)" fill-rule="nonzero">
            <g id="Rank-pane" transform="translate(0.000000, 63.000000)">
                <g id="Content" transform="translate(16.000000, 41.000000)">
                    <g id="List-3" transform="translate(204.000000, 124.000000)">
                        <g id="Avatar-copper" transform="translate(30.000000, 0.000000)">
                            <path d="M0,25.0000291 C0,38.8070764 11.1929818,50.0000582 25.0000291,50.0000582 C38.8070764,50.0000582 50.0000582,38.8070764 50.0000582,25.0000291 C50.0000582,11.1929818 38.8070764,0 25.0000291,0 C11.1929818,0 0,11.1929818 0,25.0000291 Z" id="Path" fill="#EDEEF5"></path>
                            <path d="M25.0000291,50.0000582 C34.1019928,50.0000582 42.0656739,45.1344275 46.4379447,37.8637159 L46.4363822,37.8289503 C45.1754432,35.910198 36.5129331,33.0043353 33.114101,33.0043353 C26.3711244,44.791849 17.269942,35.0328533 17.4343953,33.114101 C12.7250148,32.7902725 7.04961758,36.1914484 3.90000454,38.4016072 C8.33672845,45.3719278 16.1254094,50.0000582 25.0000291,50.0000582 Z" id="Path" fill="#586ABA"></path>
                            <path d="M17.5422079,33.6465235 C18.5816622,36.3387142 26.8609688,43.9352074 33.114101,33.0043353 C33.1637105,33.0043353 33.2180074,33.0070697 33.26957,33.0082415 C32.0937873,31.8933965 31.1875363,30.0402693 31.5363648,26.6730779 C28.3961268,31.5879274 22.4172136,31.879334 19.3449444,26.8015937 C19.5687728,28.2851892 19.459007,30.6160513 17.5422079,33.6465235 L17.5422079,33.6465235 Z" id="Path" fill="#EDE7E6"></path>
                            <path d="M19.1820536,27.0558909 C19.4597883,28.0426108 26.637531,34.7449623 33.1418354,33.1004291 C31.2383176,30.7566764 31.9125371,27.0972972 32.0312873,24.9179977 C32.7051162,23.4375273 19.3801007,25.7402643 19.1820536,27.0558909 Z" id="Path" fill="#E3DCDB"></path>
                            <path d="M33.5687891,19.1105691 C33.5285546,21.3273686 33.1316792,23.2359645 32.4863659,24.8226851 C36.0894951,23.7933871 36.9394961,15.6906433 33.5687891,19.1105691 Z" id="Path" fill="#EFE7E6"></path>
                            <path d="M31.7230838,13.8156411 C24.6367474,15.4054867 21.7140878,12.1707173 20.2664298,11.1839974 C17.9504115,13.0343902 18.5293184,17.310567 17.7847863,18.0918179 L17.7847864,18.091818 C17.6574117,17.9312797 17.5401284,17.7629871 17.4336141,17.5879112 C16.7859571,35.2293379 33.7297268,34.0344147 33.5726954,18.5226779 C32.0433967,16.1785345 32.3172252,16.1250188 31.7230839,13.8156412 L31.7230838,13.8156411 Z" id="Path" fill="#F7EDEB"></path>
                            <path d="M20.2664298,11.184388 C21.7140878,12.1711079 24.6367474,15.4058773 31.7230838,13.8160317 C32.3297251,16.1734563 32.0262091,16.1734563 33.6668361,18.6679905 C34.8660562,19.0793191 38.3406696,7.27813347 28.1656578,5.67461598 C16.2543158,3.8242232 14.7242359,14.3093917 17.7847863,18.0922086 C18.5293184,17.3109576 17.9504115,13.0343902 20.2664298,11.184388 Z" id="Path" fill="#586ABA"></path>
                        </g>
                    </g>
                </g>
            </g>
        </g>
    </g>
</svg>