<?xml version="1.0" encoding="UTF-8"?>
<svg width="44px" height="44px" viewBox="0 0 44 44" version="1.1" xmlns="http://www.w3.org/2000/svg" xmlns:xlink="http://www.w3.org/1999/xlink">
    <title>Avatar-5</title>
    <g id="Home" stroke="none" stroke-width="1" fill="none" fill-rule="evenodd">
        <g id="Rank" transform="translate(-41.000000, -592.000000)" fill-rule="nonzero">
            <g id="Rank-pane" transform="translate(0.000000, 63.000000)">
                <g id="Content" transform="translate(16.000000, 41.000000)">
                    <g id="List" transform="translate(0.000000, 333.000000)">
                        <g id="Avatar-5" transform="translate(25.000000, 155.000000)">
                            <path d="M-4.02706866e-05,22.0426506 L-4.02706866e-05,22.0427039 C0.0233572115,34.1926907 9.89180591,44.0233076 22.0418357,43.9999742 C34.1918225,43.9765768 44.0224394,34.1081281 43.999106,21.9580983 L43.999106,21.9580432 C43.9757075,9.80805644 34.1072598,-0.0225604664 21.95723,0.00077296166 C9.80724321,0.0241713263 -0.0233736987,9.89261904 -4.02706866e-05,22.0426488 L-4.02706866e-05,22.0426506 Z" id="Path" fill="#6170BE"></path>
                            <path d="M11.3026422,31.3256732 L11.3026422,31.3256731 C10.2868211,31.618829 9.20761675,31.6098357 8.19681855,31.2997913 L8.19681855,31.2997914 C9.028991,30.7801998 9.75980865,30.1136979 10.3536375,29.33277 L11.3026422,31.3256732 Z" id="Path" fill="#6170BE"></path>
                            <path d="M10.3536331,29.3327802 C10.2414786,29.0351388 10.1465785,28.7288709 10.0603053,28.4226022 C19.2440699,21.5682192 25.6972532,35.708349 32.1677103,30.2472723 L32.1677103,30.2472715 C29.425622,36.1684581 22.4026638,38.7455978 16.4814773,36.0035008 C14.32037,35.002693 12.5121656,33.3721474 11.2939829,31.3256595 L11.293983,31.3256594 C10.2808561,31.6171052 9.20490442,31.608114 8.19678762,31.2997779 L8.19678762,31.2997777 C9.02984135,30.7813462 9.76084806,30.1146638 10.3536069,29.3327562 L10.3536331,29.3327802 Z" id="Path" fill="#FFF3D5"></path>
                            <path d="M28.0611616,15.3997171 L28.0611614,15.399717 C22.6402176,11.7504757 15.2873536,13.1867293 11.6380993,18.607686 C9.92242817,21.1563159 9.26534069,24.2723488 9.80581515,27.2967508 C19.438174,19.7780702 25.1666885,35.1260099 32.167724,30.2472808 C33.3841707,28.9531894 36.23549,28.2241808 36.23549,28.2241808 C35.873144,28.0214398 34.9759069,26.9300894 33.1857451,27.2924324 C35.56256,17.7204447 28.84624,9.97746696 28.84624,9.97746696 L28.8462399,9.97746696 C30.4577719,9.96499712 31.8659067,8.88601648 32.2971545,7.33320568 C30.3430753,8.37279283 28.9281986,7.53594666 27.9835167,8.7394542 C27.0560824,7.74300343 25.4514083,8.8990588 23.9373209,8.45044003 C24.1918256,9.64532072 25.3565074,10.1413869 26.9568717,10.2923664 C26.9568717,10.2923664 26.5470757,11.707243 24.6361311,12.6260449 L24.6361309,12.626045 C24.3416275,12.7668563 24.0374638,12.8865034 23.7259529,12.9840774 C23.510271,13.0530956 23.2945891,13.1134865 23.044399,13.1652501 C23.044399,13.1652501 25.3565115,13.2601502 28.0525416,15.399718 L28.0611616,15.3997171 Z" id="Path" fill="#F8CF6C"></path>
                            <path d="M27.4874421,26.6712498 L27.4874421,26.6712497 C27.4807595,27.0261169 27.667469,27.3565762 27.9748845,27.5339772 L27.9748845,27.5339772 C28.2757812,27.7108376 28.6488716,27.7108376 28.9497692,27.5339773 L28.9497692,27.5339772 C29.4159936,27.2646733 29.575627,26.6684094 29.3063226,26.2021894 C29.0370187,25.735965 28.4407548,25.5763316 27.9745347,25.845636 C27.6787384,26.0164967 27.4939502,26.3297139 27.4874447,26.6712514 L27.4874421,26.6712498 Z" id="Path" fill="#6170BE"></path>
                            <path d="M11.1732203,31.4248881 L11.1732203,31.424888 C10.159234,31.7207149 9.08062256,31.7117138 8.07171084,31.3990064 L8.07171084,31.3990062 C8.90527997,30.8830369 9.63646286,30.2176564 10.22853,29.4362989 L11.1732203,31.4248881 Z" id="Path" fill="#F8CF6C"></path>
                        </g>
                    </g>
                </g>
            </g>
        </g>
    </g>
</svg>