<?xml version="1.0" encoding="UTF-8"?>
<svg width="44px" height="44px" viewBox="0 0 44 44" version="1.1" xmlns="http://www.w3.org/2000/svg" xmlns:xlink="http://www.w3.org/1999/xlink">
    <title>Avatar-6</title>
    <g id="Home" stroke="none" stroke-width="1" fill="none" fill-rule="evenodd">
        <g id="Rank" transform="translate(-41.000000, -656.000000)" fill-rule="nonzero">
            <g id="Rank-pane" transform="translate(0.000000, 63.000000)">
                <g id="Content" transform="translate(16.000000, 41.000000)">
                    <g id="List" transform="translate(0.000000, 333.000000)">
                        <g id="Avatar-6" transform="translate(25.000000, 219.000000)">
                            <path d="M21.9978772,0.00499746038 C9.84965209,0.00499746038 0,9.85466461 0,22.0028897 C0,29.4853476 3.73738326,36.0943787 9.44630396,40.0684341 L9.44630396,40.0684341 C9.44651815,40.0673384 9.44681742,40.066261 9.44719908,40.0652118 L9.44361866,40.0628846 C9.47154568,39.9656771 9.502516,39.8702597 9.53259115,39.7743057 C9.54333232,39.740292 9.55317836,39.7055625 9.56427755,39.6717275 L9.56427755,39.6717275 C9.68092195,39.3098744 9.8140728,38.9535513 9.96331118,38.6038798 C9.97816979,38.568971 9.99410249,38.5344203 10.0093192,38.4995116 L10.0093185,38.4995131 C10.1478813,38.1836099 10.2997051,37.8736897 10.4643839,37.5705835 C10.4808537,37.5403292 10.4967864,37.5095377 10.5136141,37.4792838 L10.5136141,37.4792838 C10.6922977,37.1577104 10.8858477,36.844626 11.093637,36.5410429 C11.1178046,36.5057761 11.1426881,36.4712254 11.1672138,36.4363167 L11.1672135,36.4363171 C11.2763126,36.2804061 11.3891242,36.1271257 11.5055507,35.9766068 C11.590048,35.867763 11.6765141,35.7603517 11.7647703,35.6545514 C11.7926973,35.6208958 11.8199083,35.5870611 11.8481934,35.5537638 L11.8481929,35.5537644 C12.0811877,35.2805219 12.3264571,35.0179907 12.5832472,34.7669756 C12.6204832,34.7308137 12.6584353,34.6955468 12.6960292,34.6595639 L12.6960293,34.6595638 C12.8320449,34.5301379 12.9710571,34.4038985 13.1129534,34.2809485 L13.157708,34.2415643 L13.157708,34.2435335 C14.1852767,33.3634766 15.3725348,32.6493695 16.6899367,32.1289572 L16.6899375,32.1289569 C16.8714897,32.0570628 17.0546111,31.9891979 17.239169,31.925412 L17.2391689,31.925412 C17.3627862,31.8829952 17.4869665,31.8422381 17.611677,31.8031516 C17.6691422,31.7852497 17.7262494,31.7666317 17.7840726,31.749267 L17.7840732,31.7492668 C17.9667134,31.6942779 18.1504871,31.6431265 18.3352727,31.5958475 L18.3442236,31.5936993 L18.3442231,31.5936995 C18.5289429,31.5471973 18.7145626,31.5043437 18.9009741,31.4651635 C18.9602294,31.4528111 19.0200217,31.4415329 19.0796354,31.4297177 L19.0796343,31.4297179 C19.2818382,31.3896573 19.4848275,31.353667 19.6884764,31.3217691 L19.6884761,31.3217691 C19.8268726,31.3003977 19.9655668,31.281002 20.1045167,31.2635881 C20.1657413,31.2558903 20.2266079,31.2472973 20.2881903,31.2403156 L20.2881899,31.2403156 C20.4888765,31.2169401 20.6900066,31.1975432 20.8914632,31.1821363 L21.9978024,31.1821363 C17.7194248,31.1821363 14.047758,28.5876114 12.4682679,24.8863907 C11.9082942,27.6533107 8.54488558,30.0640022 6.51051486,29.2437278 C7.89594499,27.8781708 6.73625789,21.0616519 11.6455013,21.1123121 C11.2951608,14.2954409 17.6182934,10.1690611 21.9980173,10.467995 L22.0030298,10.467995 C26.3873943,10.1690332 32.725722,14.2954237 32.3707567,21.1123121 C37.2644304,21.0630819 36.1047369,27.8885348 37.4851611,29.2539114 C35.4486377,30.0816968 32.0827369,27.6481072 31.5370761,24.8649063 C29.9627809,28.5775868 26.284484,31.1821363 21.9978736,31.1821363 L23.1142374,31.1821363 C23.3172452,31.1973529 23.5179258,31.2174031 23.7173517,31.2403174 C23.7791134,31.2472991 23.8401587,31.2558921 23.9012045,31.2635899 L23.901206,31.2635901 C24.1080866,31.2898195 24.3144116,31.3202577 24.5200513,31.3548863 C24.6555688,31.3778007 24.7900122,31.4030423 24.9237397,31.4293581 C24.9844271,31.4413524 25.0452937,31.4528096 25.1056232,31.46552 C25.2878646,31.5040091 25.4684951,31.5451837 25.6471547,31.5904754 C25.6587909,31.5933397 25.6706062,31.596025 25.6822424,31.5992474 C25.8626938,31.6452554 26.0406388,31.6953806 26.2171524,31.7481914 C26.2799883,31.7668094 26.3417499,31.7870386 26.4040487,31.8065516 C26.5227384,31.8437876 26.6405331,31.8822768 26.7574327,31.922377 L26.7574319,31.9223768 C26.9381157,31.9848547 27.1174726,32.0511061 27.2953841,32.1210881 C28.5970336,32.6327262 29.7717577,33.3334056 30.7916307,34.1964554 L30.7916307,34.1944862 C30.8072054,34.2073756 30.821885,34.2213391 30.8372808,34.2345865 C30.9212409,34.306194 31.0037685,34.3790549 31.0855803,34.45299 C31.1276498,34.4911211 31.1693613,34.5299682 31.2108936,34.5686363 C31.2970018,34.6486579 31.3829313,34.7292163 31.4667118,34.8119235 C31.4826445,34.8276772 31.4980402,34.8441469 31.5139728,34.8600795 L31.5139726,34.8600793 C31.8159543,35.1618922 32.1012573,35.4799429 32.3686092,35.8128179 C32.3874062,35.8362694 32.4065612,35.8595418 32.4250001,35.8829933 C32.5089603,35.9889728 32.5909508,36.0963841 32.6711516,36.2054067 C32.6854732,36.2249197 32.6996157,36.2449699 32.7139372,36.2646619 C33.5295495,37.3856792 34.1546854,38.6610147 34.5576554,40.0620167 C40.2617636,36.0872523 43.9955374,29.4810786 43.9955374,22.0021871 C43.9955374,9.85464955 34.146358,0.00499746038 21.9979181,0.00499746038 L21.9978772,0.00499746038 Z" id="Path" fill="#FCD077"></path>
                            <path d="M31.5370797,24.8654 C32.0236541,23.7177077 32.3063243,22.4635 32.3464271,21.1482465 C29.3133068,23.0206076 23.0454866,19.8045305 21.9976924,15.3705757 C20.9527556,19.8145379 14.6690198,23.0359948 11.6486139,21.1367738 C11.6878192,22.464557 11.9744287,23.7302245 12.4681622,24.8870477 C14.047648,28.5882684 17.7193362,31.1827933 21.9976967,31.1827933 C26.2846681,31.1827933 29.9627802,28.5782438 31.5370711,24.8653914 L31.5370797,24.8654 Z" id="Path" fill="#FCE9EA"></path>
                            <path d="M21.9978772,15.3705843 L21.9978772,10.4686606 C17.6183682,10.1696987 11.2952085,14.2960893 11.6453612,21.1129777 C6.73613284,21.0623153 7.89598536,27.8788449 6.51037476,29.2443934 C8.54492596,30.0646592 11.9081584,27.6539849 12.4681278,24.8870563 C11.9743948,23.7302331 11.6877843,22.4647461 11.6485796,21.1367824 C14.6691702,23.0359991 20.9529146,19.8145465 21.9978772,15.3705843 L21.9978772,15.3705843 Z" id="Path" fill="#ADBE20"></path>
                            <path d="M32.3466119,21.1482551 C32.3063326,22.4635086 32.0236614,23.7177163 31.5372644,24.8654086 C32.0829166,27.6486181 35.4488346,30.0822077 37.4853495,29.2544137 C36.1049338,27.8890328 37.2646188,21.0635722 32.3709451,21.1128144 C32.72594,14.2959432 26.3875827,10.1695634 22.0032182,10.4684973 L21.9982057,10.4684973 L21.9982057,15.3705929 C23.0456475,19.8045434 29.313472,23.020801 32.3465966,21.1482637 L32.3466119,21.1482551 Z" id="Path" fill="#BECF3D"></path>
                            <path d="M25.6526193,31.6138329 C25.6797,31.6209155 25.7071973,31.6267483 25.734278,31.6342476 L25.7342781,31.6342477 C25.7072088,31.6268553 25.6799828,31.6200489 25.6526194,31.613833 L25.6526193,31.6138329 Z M24.9239708,31.4343597 C24.9846582,31.4622736 25.0455248,31.4889377 25.1058543,31.5185182 C25.0455248,31.4889378 24.9846582,31.4626903 24.9239708,31.4343597 Z M34.5571898,40.0630478 L34.5571898,40.0630474 C34.1542177,38.6620454 33.5290839,37.3867099 32.7134717,36.2656926 C33.5283664,37.3868904 34.1540393,38.662402 34.5564722,40.063404 L34.5571898,40.0630478 Z M26.2175766,31.7488441 C26.2804125,31.7807459 26.3421741,31.8154085 26.4044724,31.8488441 C26.3421737,31.8151017 26.2802333,31.7807459 26.2175766,31.7488441 Z M30.7918546,34.1971105 C29.7719815,33.3342368 28.5972575,32.6335575 27.2956079,32.1217432 C27.3158371,32.1296201 27.3364243,32.1376759 27.3566537,32.1459108 L27.3566537,37.901023 L16.5582075,37.901023 L16.5582075,32.181532 C16.6020671,32.16363 16.6464642,32.1466232 16.6905029,32.1292583 C15.373101,32.6494901 14.1858472,33.3637734 13.1582742,34.2438346 L13.1582742,42.1462695 L13.1582732,42.1462691 C11.8570104,41.5741052 10.614241,40.8772114 9.44738882,40.0653546 L9.44649373,40.0685769 C13.0062912,42.546738 17.3322998,44.0009139 21.9980669,44.0009139 C25.2084164,44.0009139 28.2578477,43.3125838 31.0075501,42.0764574 C30.9364797,42.1085018 30.8634396,42.1373239 30.7920108,42.1686521 L30.7920108,34.1971233 L30.7918546,34.1971105 Z M17.6121205,31.8497391 C17.6695857,31.8165164 17.7266929,31.7819648 17.784516,31.7497391 C17.7266929,31.7819651 17.6697649,31.816849 17.6121205,31.8497391 Z M11.7650121,35.6546852 C11.7984885,35.6210296 11.8311066,35.587195 11.8650121,35.5538976 C11.8311066,35.5871952 11.7984887,35.6210299 11.7650121,35.6546852 Z M18.9014423,31.5178546 C18.9606976,31.4891074 19.0204899,31.46286 19.0801036,31.4353627 C19.0204904,31.46286 18.9605188,31.4886908 18.9014423,31.5178546 Z M18.3583163,31.626262 L18.3791476,31.6212625 L18.3583163,31.626262 Z M12.5836795,34.767285 C12.6209155,34.7311231 12.6588676,34.6958562 12.6964614,34.6598733 C12.6588674,34.6958561 12.6207362,34.7311229 12.5836795,34.767285 Z M9.54014017,39.7744435 C9.56513777,39.7404299 9.58805217,39.7057003 9.61388297,39.6718654 C9.58846877,39.7057 9.56513777,39.7402507 9.54014017,39.7744435 Z M9.96355249,38.6040164 C9.99584822,38.5691076 10.0304785,38.5343777 10.0635525,38.4996482 C10.0304786,38.534557 9.99584831,38.5689285 9.96355249,38.6040164 Z M23.7176076,31.2540399 C23.7793692,31.2702883 23.8404145,31.2902864 23.9014603,31.3082013 C23.8402358,31.2902864 23.7791904,31.2702883 23.7176076,31.2540399 Z M20.1048209,31.3082013 C20.1660455,31.2902864 20.2269121,31.2702883 20.2884945,31.2540399 C20.2269121,31.2702883 20.1660455,31.2902864 20.1048209,31.3082013 Z M11.0938769,36.5410248 C11.1267236,36.505758 11.1605433,36.4712073 11.1938769,36.4362986 C11.1605434,36.4713864 11.1264804,36.5057581 11.0938769,36.5410248 Z M10.4644441,37.5792661 C10.4978987,37.5461288 10.5302624,37.512403 10.5644441,37.4792661 C10.5306259,37.5124034 10.4982622,37.5461292 10.4644441,37.5792661 Z" id="Shape" fill="#FF9F31"></path>
                            <path d="M16.558199,37.90125 L27.3566451,37.90125 L27.3566451,32.1461194 L27.3566451,32.1461194 C27.0437961,32.020657 26.7260865,31.9076675 26.4042717,31.8074178 C26.3419729,31.7879048 26.2802113,31.7676756 26.2173759,31.7490576 L26.2173764,31.7490578 C26.0401129,31.6957494 25.8617718,31.6460912 25.6824664,31.6001137 C25.6708302,31.5968914 25.6590149,31.5943851 25.6473787,31.5913418 L25.6473791,31.5913419 C25.4677171,31.5460924 25.2871703,31.504432 25.1058476,31.4663865 C25.0455181,31.4536762 24.9846515,31.4422189 24.9239641,31.4302247 L24.9239659,31.430225 C24.7223576,31.3902897 24.5199651,31.354419 24.3169113,31.3226346 L24.3169115,31.3226346 C24.1786925,31.3012753 24.0401774,31.2818796 23.901408,31.2644531 C23.8401834,31.2567553 23.7791381,31.2481624 23.7175552,31.2411806 L23.7175557,31.2411807 C23.5169215,31.2178043 23.3158434,31.1984067 23.1144413,31.1829997 L20.8917384,31.1829997 L20.8917379,31.1829997 C20.6902834,31.198415 20.4891538,31.2178116 20.2884645,31.2411782 C20.2268821,31.2481599 20.1660155,31.2567528 20.104791,31.2644507 L20.1047912,31.2644506 C19.8980292,31.2906644 19.6918172,31.321044 19.4862811,31.3555716 C19.3498685,31.3786651 19.2145301,31.4040859 19.0799076,31.4305805 C19.0202944,31.4423957 18.960502,31.453674 18.9012463,31.4660263 L18.9012458,31.4660264 C18.7148356,31.5052066 18.5292159,31.5480603 18.3444948,31.594562 L18.3355438,31.5967102 L18.3355435,31.5967103 C18.1508021,31.6441564 17.9670315,31.6953065 17.784344,31.75013 C17.7265209,31.7674948 17.6694136,31.7861128 17.6119485,31.8040146 L17.6119493,31.8040143 C17.4229524,31.8632021 17.235238,31.9264101 17.0489334,31.9935956 C16.9282745,32.0372764 16.8088689,32.0829261 16.6901792,32.1298291 C16.6459613,32.1471939 16.6017438,32.1642008 16.5578838,32.1821028 L16.5578838,37.90125 L16.558199,37.90125 Z M21.9978772,32.8065026 L21.9978771,32.8065026 C22.3593938,32.8065026 22.6524595,33.0995739 22.6524595,33.4610893 C22.6524595,33.822606 22.3593926,34.1156717 21.9978771,34.1156717 L21.9978771,34.1156717 C21.6363604,34.1096932 21.3481416,33.8117796 21.3541186,33.4502612 C21.3599578,33.0971694 21.6447875,32.8123421 21.9978814,32.8065026 L21.9978772,32.8065026 Z M21.9978772,35.1763566 L21.9978771,35.1763566 C22.3593444,35.1763566 22.6523693,35.4693879 22.6523693,35.830853 C22.6523693,36.1923203 22.3593423,36.4853452 21.9978771,36.4853452 L21.9978772,36.4853452 C21.6364099,36.4768905 21.3502385,36.1770097 21.3586905,35.8155432 C21.3668668,35.4659736 21.6483062,35.1845335 21.9978772,35.1763566 L21.9978772,35.1763566 Z M13.1580778,34.243852 L13.1580778,34.2418827 C13.1430402,34.2547721 13.1283606,34.2680195 13.1133232,34.281267 L13.1133227,34.2812674 C12.9714375,34.4042222 12.8324292,34.5304577 12.6964097,34.6598715 C12.6588157,34.6956754 12.6206845,34.7309419 12.5836278,34.7672832 L12.5836265,34.7672845 C12.3266593,35.0181196 12.0813814,35.2806585 11.8485807,35.554069 C11.8202957,35.5873666 11.7929056,35.6212013 11.7651577,35.6548566 L11.7651575,35.6548568 C11.554918,35.9068134 11.3555475,36.1676422 11.1675904,36.4366355 C11.1430647,36.4715442 11.118181,36.506095 11.0940136,36.5413616 L11.0940142,36.5413608 C10.8862665,36.844965 10.6927187,37.1580447 10.5139956,37.4795931 C10.4971678,37.5098474 10.481235,37.5406389 10.4647653,37.5708928 L10.4647652,37.5708931 C10.2998436,37.8738773 10.1480151,38.1838043 10.0096998,38.4998227 C9.99448319,38.5345524 9.97872949,38.5692822 9.96369183,38.6041909 L9.96369212,38.6041902 C9.81437597,38.9538325 9.68122383,39.310159 9.5646585,39.6720379 C9.55355931,39.7058725 9.54371327,39.7406024 9.5329721,39.774616 C9.50289686,39.8705701 9.47192675,39.9659875 9.44399961,40.0631949 L9.44399961,40.0631958 C10.6118928,40.8760581 11.8558697,41.5737382 13.158456,42.1464349 L13.158456,34.2438281 L13.1580778,34.243852 Z M32.7142959,36.2653363 C32.6999743,36.2456442 32.6858318,36.2255941 32.6715103,36.2060811 L32.6715106,36.2060816 C32.5913485,36.09719 32.5092897,35.9897075 32.4253716,35.8836837 L32.3689806,35.8135083 L32.3689807,35.8135084 C32.1016224,35.4806372 31.8163203,35.1625869 31.5143441,34.8607698 C31.4984114,34.8448371 31.4830158,34.8283673 31.4670832,34.8126138 L31.4670836,34.8126142 C31.3830869,34.7301979 31.2978089,34.6490969 31.2112809,34.5693416 L31.2112812,34.5693419 C31.1698575,34.5304184 31.1280846,34.4918679 31.0859679,34.4536957 L31.0859681,34.4536959 C31.0042066,34.3797599 30.9214324,34.3069518 30.8376686,34.2352923 C30.8222729,34.2222239 30.8075933,34.2082605 30.7920185,34.195192 L30.7920185,42.1683107 C30.8634473,42.1369823 30.9364869,42.1081604 31.0075578,42.0761159 L31.0088109,42.0755789 L31.008812,42.0755784 C31.242662,41.9700564 31.4746368,41.8604254 31.7046273,41.7467364 L31.8016556,41.6985804 L31.8016563,41.69858 C32.2611904,41.4693531 32.712539,41.224067 33.1548641,40.963169 L33.2175208,40.9262911 L33.217522,40.9262903 C33.6744909,40.6548298 34.1214309,40.3668409 34.5574654,40.0628925 C34.154672,38.6620666 33.5289985,37.386555 32.7142843,36.2653572 L32.7142959,36.2653363 Z" id="Shape" fill="#FEFEFE"></path>
                            <path d="M21.3432045,33.4611796 L21.3432045,33.4611795 C21.3432045,33.8227456 21.6363115,34.1158521 21.9978772,34.1158521 C22.3594433,34.1158521 22.6525498,33.8227452 22.6525498,33.4611795 C22.6525498,33.4611795 22.6525498,33.4611795 22.6525498,33.4611794 L22.6525498,33.4611794 C22.6525498,33.0996133 22.3594429,32.8065068 21.9978772,32.8065068 C21.636311,32.8065068 21.3432045,33.0996137 21.3432045,33.4611794 C21.3432045,33.4611794 21.3432045,33.4611794 21.3432045,33.4611795 L21.3432045,33.4611796 Z" id="Path" fill="#FF9F31"></path>
                            <path d="M21.3433764,35.8308659 L21.3433764,35.830866 C21.3433764,36.1923333 21.6364034,36.4853582 21.9978686,36.4853582 C22.3593359,36.4853582 22.6523607,36.1923312 22.6523607,35.830866 L22.6523607,35.830866 C22.6523607,35.4693987 22.3593337,35.1763738 21.9978686,35.1763738 C21.6364013,35.1763738 21.3433764,35.4694008 21.3433764,35.830866 C21.3433764,35.830866 21.3433764,35.830866 21.3433764,35.830866 L21.3433764,35.8308659 Z" id="Path" fill="#FF9F31"></path>
                        </g>
                    </g>
                </g>
            </g>
        </g>
    </g>
</svg>