<?xml version="1.0" encoding="UTF-8"?>
<svg width="16px" height="16px" viewBox="0 0 16 16" version="1.1" xmlns="http://www.w3.org/2000/svg" xmlns:xlink="http://www.w3.org/1999/xlink">
    <title>头像 女孩</title>
    <g id="Home" stroke="none" stroke-width="1" fill="none" fill-rule="evenodd">
        <g id="Rank" transform="translate(-36.000000, -270.000000)" fill-rule="nonzero">
            <g id="头像-女孩" transform="translate(36.000000, 270.000000)">
                <rect id="Rectangle" fill="#000000" opacity="0" x="0" y="0" width="15.9843902" height="15.9843902"></rect>
                <path d="M7.99489397,0.00182090927 C3.57990615,0.00182090927 0.00370684878,3.57990615 0.00370684878,7.99300803 C0.00370684878,10.7111042 1.36067389,13.1119721 3.43429851,14.5556274 L3.43429851,14.5556274 L3.43423348,14.5556274 L3.43566419,14.550815 C3.48336629,14.3850274 3.54042621,14.2220766 3.60656946,14.0627465 L3.60956096,14.0553978 C3.62770501,14.0120212 3.64682455,13.9692298 3.66626925,13.9266986 C3.69141362,13.8712783 3.71773605,13.8164002 3.74521864,13.7621015 C3.75510356,13.7425917 3.7653787,13.7232771 3.77552376,13.7039624 C3.79428813,13.6678045 3.81358318,13.6319244 3.83340263,13.5963338 C3.84458821,13.5763688 3.85648915,13.5569891 3.86799989,13.5372192 C3.90105507,13.4805919 3.9353792,13.424715 3.97094626,13.3696306 C3.98863508,13.3421869 4.00619386,13.3146132 4.024533,13.2876898 C4.04183163,13.262132 4.05978059,13.2372246 4.07753444,13.2121221 C4.11432807,13.1602866 4.15222902,13.109246 4.19121116,13.0590357 C4.20415262,13.0425174 4.21696401,13.0259342 4.23010056,13.009546 L4.23426263,7.67961667 L4.23530316,7.67961667 C4.23413257,7.64157268 4.23244174,7.6037238 4.23244172,7.56535466 C4.23244172,7.55852625 4.23289695,7.55182792 4.232962,7.54499949 C4.18913013,5.14497703 6.43229434,3.69670442 7.9957394,3.80290242 C9.59026997,3.69475345 11.8954751,5.19888893 11.7627439,7.67961667 L11.7591021,7.68163267 L11.7631991,13.0127976 C11.7732792,13.0254139 11.7832942,13.0382253 11.7932441,13.0509716 C11.8148349,13.0784804 11.8360355,13.1063143 11.8569109,13.1343432 C11.8741445,13.1573647 11.8909228,13.1808414 11.9077012,13.2042531 C11.9279263,13.2324772 11.9480864,13.2606363 11.9675961,13.2894456 C11.9850248,13.3151335 12.0016731,13.3414066 12.0186466,13.3675496 C12.0487453,13.4140695 12.0779503,13.4611616 12.1062453,13.5088001 C12.1243893,13.5393653 12.1426635,13.5697355 12.1600271,13.6007559 C12.1754398,13.6282647 12.1901371,13.6562937 12.2049645,13.6841275 C12.2209625,13.7141725 12.2368304,13.7442826 12.2522431,13.7748478 C12.2827641,13.835768 12.3119061,13.8973695 12.3396467,13.959605 C12.3508973,13.9847075 12.362278,14.00968 12.3730084,14.0350426 C12.3944041,14.0854428 12.4148893,14.1365583 12.4345291,14.188064 C12.4382359,14.1977538 12.4422679,14.2072486 12.4459748,14.2169384 C12.4693865,14.2796947 12.4912374,14.3433615 12.5121128,14.4076786 C12.5173154,14.4237416 12.5220628,14.4399997 12.5270703,14.4561277 C12.5372153,14.488644 12.5477506,14.520835 12.5572453,14.5537414 C12.5568372,14.5540605 12.556402,14.5543434 12.5559447,14.5545869 L12.5559447,14.5546519 C14.6289189,13.1109316 15.985951,10.7105189 15.985951,7.99307306 C15.985951,3.57990615 12.4079958,0.00182090927 7.99489397,0.00182090927 Z" id="Path" fill="#F4B3B3"></path>
                <path d="M4.31152119,12.911282 C4.35245305,12.8632216 4.39443069,12.8160618 4.437424,12.7698364 C4.44100079,12.7659344 4.44477267,12.7623577 4.44834946,12.7585207 C4.4894699,12.7148853 4.53148988,12.6721065 4.57438235,12.6302117 C4.58745386,12.6175304 4.60085054,12.6050442 4.61405214,12.5924929 C4.66258562,12.5460932 4.71224177,12.5008823 4.76297644,12.4569002 C4.76928459,12.4514375 4.77539764,12.4458447 4.78177082,12.440382 L4.78177082,12.4412274 C5.14939924,12.1261452 5.5730206,11.8694622 6.04288003,11.6811932 C6.16703436,11.6315189 6.29317318,11.5869559 6.42097868,11.5476166 C6.43216426,11.5441698 6.44321978,11.5405931 6.45447038,11.5372114 C6.59278096,11.4957308 6.73279211,11.4601476 6.87412477,11.4305582 C6.88966753,11.4272415 6.90540538,11.4243801 6.9210782,11.4212585 C6.996951,11.4060453 7.07314343,11.392472 7.14960222,11.3805482 C7.20292883,11.3722891 7.25664562,11.3648754 7.31075262,11.358112 C7.33058752,11.3556408 7.35029236,11.3528444 7.37032234,11.3505682 C7.44379347,11.3420765 7.51742442,11.33503 7.59117254,11.3294327 L7.9975603,11.3294327 L7.9975603,11.3276118 L7.99482894,11.3276768 C5.9552163,11.3276768 4.29591341,9.70446695 4.23530316,7.6794866 L4.23426263,7.6794866 L4.23010056,13.0094159 C4.2416113,12.9951088 4.25351224,12.9811268 4.26521809,12.9670148 C4.28063077,12.9485455 4.29584837,12.9296861 4.31152119,12.911282 L4.31152119,12.911282 Z" id="Path" fill="#FECF77"></path>
                <path d="M7.99489397,11.3278069 L7.99762533,11.3277419 C10.0343766,11.3263111 11.6912732,9.70622283 11.7542897,7.68442907 C10.7550661,8.29716478 8.15617444,7.40036733 7.38059748,6.03572645 C6.65594092,7.30568008 5.42838845,8.42963587 4.23621362,7.6796817 C4.23374239,7.63422402 4.23387245,7.58987189 4.23302703,7.54506454 C4.23302703,7.55182792 4.23250677,7.55859128 4.23250677,7.56541969 C4.23250677,7.6037238 4.23426265,7.64163771 4.2353682,7.6796817 C4.2959134,9.70459701 5.95528133,11.3278069 7.99489397,11.3278069 Z" id="Path" fill="#FCE9EA"></path>
                <path d="M7.38053243,6.03572645 C8.15610939,7.40036733 10.7550011,8.29709974 11.7542246,7.68442907 C11.6912082,9.70628784 10.0343765,11.3263111 7.9975603,11.3277419 L7.9975603,11.3295628 L8.39855037,11.3295628 C8.47275239,11.3350905 8.54610899,11.3423742 8.61901036,11.3506333 C8.63975571,11.3530395 8.66030597,11.3559009 8.68092126,11.3584372 C8.73379264,11.3651355 8.78633886,11.3723541 8.83849488,11.3804181 C8.91360541,11.3920546 8.9884538,11.4053244 9.06298688,11.420218 C9.08158615,11.4239248 9.10025047,11.4273065 9.11871969,11.4312735 C9.25717508,11.4603207 9.39436067,11.4951215 9.52991986,11.5355856 C9.54793385,11.5409833 9.56568771,11.5468362 9.58357162,11.552429 C9.65336447,11.57409 9.7226631,11.5973124 9.79141532,11.6220787 C9.83745829,11.638727 9.88298101,11.6560257 9.92817856,11.6739096 C10.3968674,11.859252 10.8199035,12.1122283 11.187662,12.4232785 L11.187662,12.4221729 C11.1961162,12.4292614 11.2041152,12.4368052 11.2125044,12.4439588 C11.2370866,12.4650943 11.2614738,12.48649 11.2856008,12.5081458 C11.3087524,12.5290212 11.3315788,12.5502218 11.3543401,12.5716175 C11.3784672,12.5942488 11.4025942,12.616685 11.4261359,12.6398365 C11.4486372,12.6619476 11.470423,12.6846439 11.492404,12.7072752 C11.5334152,12.7493816 11.5735488,12.7923339 11.6127791,12.8361044 C11.6330042,12.8586057 11.6533593,12.8808468 11.6730641,12.9038032 C11.6956954,12.9301414 11.7176114,12.9571298 11.7395924,12.9840533 C11.7473962,12.993613 11.7555253,13.0030427 11.7633292,13.0127326 L11.7592321,7.68156764 L11.762874,7.67955163 C11.8956052,5.1988239 9.59040003,3.69468842 7.99586946,3.80283739 L7.99677991,3.80283739 C8.12710494,4.26430764 7.86717025,5.18289094 7.38053243,6.03572645 Z" id="Path" fill="#FCBA6F"></path>
                <path d="M12.3397118,13.959605 C12.3734349,13.9928808 12.4073531,14.0259843 12.4397118,14.059605 C12.407548,14.0259843 12.373435,13.9928809 12.3397118,13.959605 Z M11.9077663,13.2042531 C11.9415339,13.2373829 11.975193,13.2704363 12.0077663,13.3042531 C11.9753016,13.2704363 11.9415339,13.2373829 11.9077663,13.2042531 Z M12.1600921,13.6007559 C12.1943902,13.6337513 12.2270965,13.6673706 12.2600921,13.7007559 C12.2270965,13.6672926 12.194535,13.6337513 12.1600921,13.6007559 Z M12.44585,14.188064 C12.469597,14.2216225 12.4954271,14.2545054 12.5191741,14.288064 C12.4954271,14.2545054 12.469597,14.2216225 12.44585,14.188064 Z M11.187662,12.4232134 C10.8199035,12.1121632 10.3968674,11.859122 9.92817856,11.6738445 L9.9396893,11.6783318 L9.9396893,13.7702955 L6.01693209,13.7702955 L6.01693209,11.6915334 C6.02551638,11.6880216 6.03429576,11.684705 6.04294506,11.6812582 C5.5730206,11.8695272 5.14946427,12.1262102 4.78183585,12.4412925 L4.78183585,15.3106541 C4.30935962,15.1030641 3.85809617,14.8502085 3.43436354,14.5556274 L3.43436354,14.5556924 C4.72753375,15.4559366 6.2991729,15.9842602 7.99489397,15.9842602 C9.26640838,15.9842602 10.468208,15.6867367 11.5354555,15.1583481 C11.4208319,15.2146989 11.3048671,15.2682795 11.187662,15.3190433 L11.187662,12.4232134 L11.187662,12.4232134 Z M4.024533,13.3121221 C4.05717105,13.2783011 4.09103608,13.2453406 4.124533,13.2121221 C4.09103605,13.2453406 4.05717105,13.2783871 4.024533,13.3121221 Z M11.5387071,15.1566572 C11.8922442,14.9813879 12.2322989,14.7801461 12.5560747,14.5545869 L12.5560747,14.5545218 C12.2322731,14.7800601 11.8922216,14.9813218 11.5387071,15.1566572 L11.5387071,15.1566572 Z M12.513876,14.4076786 C12.5472051,14.4408329 12.577618,14.47439 12.6096973,14.5076786 C12.5780346,14.47439 12.5476218,14.4408329 12.513876,14.4076786 Z M3.77558879,13.7040275 C3.80839777,13.6678694 3.84120675,13.6318415 3.87558879,13.5963988 C3.84109442,13.6317764 3.8083978,13.6678694 3.77558879,13.7040275 Z M4.52007745,12.7701933 C4.49716365,12.7947735 4.47300005,12.8176873 4.45008625,12.8426842 C4.47300005,12.8176874 4.49716365,12.794357 4.52007745,12.7701933 Z M4.57438235,12.6925579 C4.60733315,12.6589372 4.64110364,12.6258338 4.67438235,12.5925579 C4.64110364,12.6258338 4.60733315,12.6589372 4.57438235,12.6925579 Z M4.36528312,12.911282 C4.3313872,12.9442272 4.2984758,12.9779874 4.26528312,13.011282 C4.2984758,12.9779874 4.3313872,12.9442272 4.36528312,12.911282 Z M6.8741898,11.4980214 C6.9072923,11.4767741 6.9408103,11.4584431 6.9741898,11.4384456 C6.9409488,11.4584431 6.9072923,11.4767741 6.8741898,11.4980214 Z M7.31075262,11.4208289 C7.34404957,11.4049976 7.37712818,11.3870832 7.41075262,11.3725017 C7.37712818,11.3870832 7.34404957,11.4049976 7.31075262,11.4208289 Z M6.42104372,11.6180032 C6.45444176,11.5959227 6.48745146,11.5730089 6.52104372,11.551345 C6.48745151,11.5730089 6.4544418,11.5963393 6.42104372,11.6180032 Z M11.3543401,12.5716175 C11.3878546,12.6047919 11.4215503,12.6376804 11.4543401,12.6716175 C11.4215503,12.6376804 11.3879452,12.6046966 11.3543401,12.5716175 Z M9.52998489,11.5355856 C9.56356065,11.5676319 9.59677278,11.6023809 9.62998489,11.6355856 C9.59665155,11.6023809 9.56356065,11.5676318 9.52998489,11.5355856 Z M8.61901036,11.3717335 C8.65251875,11.3871482 8.68571204,11.4054792 8.71901036,11.4217272 C8.68571204,11.4054792 8.65262382,11.3871482 8.61901036,11.3717335 Z M9.06298688,11.4325287 C9.0963591,11.4562757 9.12984803,11.4779396 9.16298688,11.5033531 C9.12996471,11.4783563 9.0963591,11.4562757 9.06298688,11.4325287 Z M11.7729991,13.0038032 C11.7398613,12.9702538 11.706919,12.9366233 11.6729991,12.9038032 C11.706919,12.9366233 11.7398613,12.9702538 11.7729991,13.0038032 Z" id="Shape" fill="#A0D9F6"></path>
                <path d="M9.72839888,11.5997076 C9.68038684,11.5831957 9.63212722,11.5674126 9.58363665,11.5523639 C9.56581776,11.5467711 9.54799888,11.5409182 9.52998489,11.5355205 C9.39440678,11.4951251 9.25722404,11.460325 9.11878472,11.4312085 C9.1003155,11.4272415 9.08165118,11.4238598 9.06305191,11.420153 C8.98853091,11.4051953 8.9136811,11.3919253 8.83855991,11.3803531 C8.78613809,11.3723077 8.73360863,11.36498 8.68098629,11.3583721 C8.660371,11.3558359 8.63982075,11.3529744 8.6190754,11.3505682 C8.54573078,11.3421305 8.47223049,11.3351057 8.3986154,11.3294977 L7.59123757,11.3294977 C7.51748945,11.335095 7.4438585,11.3421416 7.37038737,11.3506333 C7.35042242,11.3529094 7.33071758,11.3557058 7.31081765,11.358177 C7.23581597,11.3675312 7.16101307,11.3784156 7.08645571,11.3908233 C7.03091799,11.400188 6.97583552,11.4103331 6.92114323,11.4213236 C6.90553544,11.4244451 6.88979759,11.4273065 6.8741898,11.4306232 C6.73285714,11.4602126 6.592846,11.4957958 6.45453543,11.5372764 C6.44328482,11.5406581 6.43222931,11.5442349 6.42104372,11.5476816 C6.35003754,11.5695719 6.27952506,11.5930327 6.2095582,11.6180467 C6.15337016,11.6382068 6.09783246,11.6592773 6.04294506,11.6812582 C6.03429574,11.684705 6.02551636,11.6880216 6.01693209,11.6915334 L6.01693209,13.7702955 L9.9396893,13.7702955 L9.9396893,11.6783318 L9.92817856,11.6738445 C9.86211619,11.6477246 9.79550803,11.6230067 9.72839888,11.5997076 L9.72839888,11.5997076 Z M7.99300803,13.254133 C7.90805343,13.2541446 7.82954595,13.2088326 7.78705859,13.1352656 C7.74457123,13.0616986 7.74455883,12.9710531 7.78702607,12.8974745 C7.82949331,12.8238958 7.9079884,12.7785623 7.992943,12.7785507 C8.12427142,12.7785328 8.23074868,12.8849809 8.23076664,13.0163094 C8.2307846,13.1476378 8.12433645,13.254115 7.99300803,13.254133 L7.99300803,13.254133 Z M7.99300803,12.3932335 C7.86164369,12.3932335 7.75515186,12.2867416 7.75515186,12.1553773 C7.75515186,12.024013 7.86164369,11.9175211 7.99300803,11.9175211 C8.12437237,11.9175211 8.2308642,12.024013 8.2308642,12.1553773 C8.2308642,12.2867416 8.12437237,12.3932335 7.99300803,12.3932335 Z M4.78177082,12.4412925 L4.78177082,12.440447 C4.77539764,12.4459098 4.76928459,12.4515025 4.76297644,12.4569653 C4.71226998,12.5009791 4.66261458,12.5461893 4.61405214,12.5925579 C4.60085054,12.6051092 4.58745386,12.6175954 4.57438235,12.6302767 C4.53148988,12.6721715 4.4894699,12.7149504 4.44834946,12.7585858 C4.44477267,12.7624227 4.44100079,12.7659995 4.437424,12.7699014 C4.39443069,12.8161268 4.35245305,12.8632866 4.31152119,12.911347 C4.29584837,12.9297512 4.28063077,12.9486106 4.26528312,12.9672098 C4.25357729,12.9813869 4.24167635,12.9953689 4.2301656,13.009611 C4.21702904,13.0259992 4.20421766,13.0425825 4.19127619,13.0591007 C4.15229405,13.1093111 4.1143931,13.1603516 4.07759947,13.2121871 C4.05978057,13.2372896 4.04183162,13.2622621 4.02459803,13.2877548 C4.00625887,13.3146782 3.98876514,13.342252 3.97101129,13.3696957 C3.9354352,13.4247743 3.90111095,13.4806515 3.86806494,13.5372843 C3.85655419,13.5570542 3.84471828,13.5764989 3.83346768,13.5963988 C3.81356775,13.6318415 3.79457828,13.6679345 3.77558879,13.7040275 C3.76544373,13.7233421 3.75523364,13.7426567 3.74528367,13.7621665 C3.72601581,13.8002381 3.70730614,13.8385897 3.68916066,13.8772089 C3.6814218,13.8936621 3.67394307,13.9101803 3.66633428,13.9267636 C3.64675935,13.969364 3.62785425,14.012269 3.60962599,14.0554628 L3.60663449,14.0628115 C3.54046263,14.2221307 3.48340213,14.3850831 3.43572922,14.55088 C3.43527399,14.5524408 3.4346887,14.5540016 3.43429851,14.5555623 L3.43436354,14.5556274 C3.85808101,14.8502327 4.30934687,15.1030897 4.78183585,15.3106541 L4.78183585,12.4412925 L4.78177082,12.4412925 Z M12.5573103,14.5537414 C12.5478156,14.520835 12.5372804,14.488644 12.5271353,14.4561277 C12.5221278,14.4399997 12.5173804,14.4237416 12.5121778,14.4076786 C12.4915561,14.3436135 12.4695046,14.2800176 12.4460398,14.2169384 C12.442333,14.2072486 12.438301,14.1977538 12.4345941,14.188064 C12.4149967,14.1366959 12.3944865,14.0856807 12.3730734,14.0350426 C12.362278,14.009615 12.3509624,13.9847075 12.3397118,13.959605 C12.2982332,13.8661483 12.2533083,13.7742596 12.2050296,13.6841275 C12.1901371,13.6562286 12.1755048,13.6282647 12.1600921,13.6007559 C12.1426634,13.5696704 12.1244544,13.5393653 12.1063103,13.5088001 C12.0780153,13.4611616 12.0488104,13.4140695 12.0187116,13.3675496 C12.0017381,13.3414065 11.9850248,13.3150684 11.9676611,13.2894456 C11.9481514,13.2607013 11.9279914,13.2324772 11.9077663,13.2042531 C11.8708503,13.1522476 11.8326869,13.1011389 11.7933091,13.0509716 C11.783366,13.0381906 11.7733508,13.0254657 11.7632642,13.0127976 C11.7554603,13.0031078 11.7473312,12.9936781 11.7395273,12.9841183 C11.7174813,12.9571949 11.6955654,12.9302064 11.6729991,12.9038683 C11.6532943,12.8809118 11.6329391,12.8586707 11.612714,12.8361695 C11.5735002,12.792384 11.5333662,12.7494313 11.492339,12.7073402 C11.470358,12.6847089 11.4485721,12.6620126 11.4260709,12.6399015 C11.4025942,12.616815 11.3784021,12.5943138 11.3542751,12.5716825 C11.3315137,12.5503519 11.3087524,12.5291513 11.2855358,12.5082108 C11.2613991,12.486556 11.2370322,12.4651592 11.2124393,12.4440238 C11.2040502,12.4368702 11.1960512,12.4293265 11.1875969,12.4222379 L11.1875969,15.3190433 C11.3059102,15.2678122 11.4229599,15.2137109 11.5386421,15.1567873 C11.8921511,14.9814418 12.2322019,14.7801806 12.5560097,14.5546519 L12.5573103,14.5537414 Z" id="Shape" fill="#FEFEFE"></path>
                <path d="M7.75518437,12.1554748 C7.75518437,12.2868212 7.86166165,12.3932985 7.99300803,12.3932985 C8.12435441,12.3932985 8.23083169,12.2868212 8.23083169,12.1554748 C8.23083169,12.0241285 8.12435441,11.9176512 7.99300803,11.9176512 C7.86166165,11.9176512 7.75518437,12.0241285 7.75518437,12.1554748 L7.75518437,12.1554748 Z" id="Path" fill="#A0D9F6"></path>
                <path d="M7.7552494,13.0163094 C7.7552494,13.1012523 7.80056593,13.1797429 7.87412871,13.2222144 C7.94769149,13.2646859 8.03832457,13.2646859 8.11188735,13.2222144 C8.18545013,13.1797429 8.23076666,13.1012523 8.23076666,13.0163094 C8.23076666,12.8849989 8.12431849,12.7785507 7.99300803,12.7785507 C7.86169757,12.7785507 7.7552494,12.8849989 7.7552494,13.0163094 L7.7552494,13.0163094 Z" id="Path" fill="#A0D9F6"></path>
                <path d="M4.23614859,7.67961667 C5.42832342,8.42957086 6.65587589,7.30561506 7.38053243,6.03566142 C7.8671052,5.18289094 8.12703989,4.26430762 7.99671488,3.80290242 L7.99580443,3.80290242 C6.43229432,3.69676947 4.18913013,5.14504206 4.23302703,7.54499949 C4.23380742,7.58980684 4.23374239,7.63422402 4.23614859,7.67961667 L4.23614859,7.67961667 Z" id="Path" fill="#FECF77"></path>
            </g>
        </g>
    </g>
</svg>